<svg id="Layer_1" height="512" viewBox="0 0 512 512" width="512" xmlns="http://www.w3.org/2000/svg" data-name="Layer 1"><path d="m373.91 285.12c4.15-1.29 31.59-8.02 26.7 42.33.38-14.55-13.13-18.24-16.78-18.96a62.127 62.127 0 0 0 -9.92-23.37z" fill="#8e726b"/><path d="m388.05 483.59a6.788 6.788 0 0 1 .19 5.25l-1.69 4.71-25.95 1.24a2.35 2.35 0 0 1 -1.54-4.01l5.92-7.86a18.352 18.352 0 0 0 3.72-10.75c.54-34.1-15.98-61.03-42.1-71.78-16.86-6.94-38.6-61.34-38.93-62.19 13.3 1.7 25.67 6.94 33.8 11.51 1.48 11.21 5.23 22.37 13.54 28.61a277.5 277.5 0 0 1 42.49 39.54 28.134 28.134 0 0 1 6.85 18.66c-.13 14.13.18 39.08 3.7 47.07z" fill="#8e726b"/><path d="m168.7 300.45c-11.52-7.37-18.66-16.34-22.57-25.78-7.13-17.2-3.56-35.98 3.71-49.59 11.14-20.84-1.82-49.43-2.1-50.06a.01.01 0 0 1 -.01-.01 47.619 47.619 0 0 1 -7.07-4 31.108 31.108 0 0 0 -13.17-5.26c-14.07-1.91-12.52-13.97-10.94-20.46a4.588 4.588 0 0 1 3.17-3.32l25.06-7.37a22.542 22.542 0 0 0 10.16-6.25c4.94-5.34 14.26-13.36 23.32-9.93a65.186 65.186 0 0 1 6.09 2.56 6.231 6.231 0 0 0 6.14-.31c6.43-4.11 20.03-14.61 19.52-34.65-.7-26.97 10.45-44.74 18.68-47.16 0 0-10.14 19.98-6.42 30.88 3.04 8.9-1.39 25.06-3.13 30.69a35.028 35.028 0 0 0 -1.46 7.43 22.711 22.711 0 0 0 -.06 2.73 2.361 2.361 0 0 0 4.02 1.64c2.32-2.46 11.87-6.93 24.66-3.68 21.03 5.35 36.59-16.44 28.19-38.77-6.4-17-11.17-15.36-8.4-32.56 0 0 11.02 19.47 20.04 28.97a4.814 4.814 0 0 0 7.85-1.37c7.68-17.21 8.67-48.81 7.54-53.61a1.461 1.461 0 0 1 -.04-.2c.55 1.3 26.57 102.73-78.68 117.34a92.714 92.714 0 0 1 9.66.52s-9.81 28.41-31.33 28.02a4.13 4.13 0 0 0 -4.19 4.28c.66 16.6 7.16 45.07 31.06 56.93 12.29 6.1 18.24 9.97 22.19 14.52a54.925 54.925 0 0 0 21.51 15.5 83.345 83.345 0 0 0 32.42 5.62 78.049 78.049 0 0 1 13.32.67c14.08 2.01 41.06 8.69 56.47 30.71a62.127 62.127 0 0 1 9.92 23.37c2.17 10.4 2.34 22.77-.34 37.49a40.01 40.01 0 0 1 -1.55 5.9c-2.59 7.42-9.33 32.25 9.26 48.69a41.142 41.142 0 0 1 11.51 16.21 53.424 53.424 0 0 1 3.23 20.86c-1.1 30.24-2.2 33.87 3.42 49.58.54 1.51 1.06 2.92 1.55 4.21a6.659 6.659 0 0 1 -5.85 8.99l-18.04.58a2.158 2.158 0 0 1 -2.1-2.89l1.63-4.56 1.69-4.71a6.788 6.788 0 0 0 -.19-5.25c-3.52-7.99-3.83-32.94-3.7-47.07a28.134 28.134 0 0 0 -6.85-18.66 277.5 277.5 0 0 0 -42.49-39.54c-8.31-6.24-12.06-17.4-13.54-28.61-8.13-4.57-20.5-9.81-33.8-11.51l-.01-.01a64.021 64.021 0 0 0 -14.12-.32c-62.28 5.84-85.03-25.82-85.03-25.82a123.526 123.526 0 0 0 -23.57 17.98 11.789 11.789 0 0 0 -3.42 10.52c1.52 8.78 3.81 24.4 12.93 31.77 8.17 6.61 8.02 19.79 8.7 22.83a3.8 3.8 0 0 1 -1.59 3.98l-12.86 8.63a3.094 3.094 0 0 1 -4.66-1.54c-1.3-3.78-2.68-9.7-.6-14.11 3.35-7.11-5.69-18.37-11.23-27.08a94.886 94.886 0 0 1 -6.88-12.9 65.9 65.9 0 0 1 -4.49-14.26c-2.25-12.37.61-23.89 14.42-28.97 1.18-.43 2.29-.9 3.36-1.41.03-.01.04-.02.06-.02a.109.109 0 0 0 .04-.02 35.71 35.71 0 0 0 9.98-7z" fill="#a5867c"/><path d="m168.7 300.45a35.71 35.71 0 0 1 -9.98 7 .076.076 0 0 0 -.04.02c-.02 0-.03.01-.06.02-1.33.48-16.43 5.51-34.38-7.03 0 0-5.3 10.3-.9 17.54s17.5 19.87 17.5 19.87a65.9 65.9 0 0 0 4.49 14.26l-9.14 8.08a3.31 3.31 0 0 1 -5.14-.98l-4.37-11.45a5.447 5.447 0 0 0 -2.85-3.02c-13.17-5.92-17.7-14.4-22.19-39.61-4.72-26.46 8.48-28.67 22.62-23.94a19.168 19.168 0 0 0 21.87-6.54c3.91 9.44 11.05 18.41 22.57 25.78z" fill="#8e726b"/><path d="m174.45 372.32c-9.12-7.37-11.41-22.99-12.93-31.77a11.789 11.789 0 0 1 3.42-10.52c1.6-1.536 3.558-3.342 5.8-5.272 1.471-6.908 5.823-12.66 14.517-15.858 1.18-.43 2.29-.9 3.36-1.41.03-.01.04-.02.06-.02a.109.109 0 0 0 .04-.02l.122-.058a7.894 7.894 0 0 0 1.708-13.023 52.982 52.982 0 0 1 -14.42-19.7c-7.13-17.2-3.56-35.98 3.71-49.59 11.14-20.84-1.82-49.43-2.1-50.06a.01.01 0 0 1 -.01-.01 47.619 47.619 0 0 1 -7.07-4 31.108 31.108 0 0 0 -13.17-5.26c-14.07-1.91-12.52-13.97-10.94-20.46a4.588 4.588 0 0 1 3.17-3.32l25.06-7.37a22.542 22.542 0 0 0 10.16-6.25c4.94-5.34 14.26-13.36 23.32-9.93a65.261 65.261 0 0 1 6.07 2.55 6.24 6.24 0 0 0 6.155-.3 45.159 45.159 0 0 0 13.559-13.085c-6.415.655-10.911 3.059-12.4 4.642a2.361 2.361 0 0 1 -4.02-1.64 22.711 22.711 0 0 1 .06-2.73 35.028 35.028 0 0 1 1.46-7.43c1.74-5.63 6.17-21.79 3.13-30.69-3.72-10.9 6.42-30.88 6.42-30.88-8.23 2.42-19.38 20.19-18.68 47.16.51 20.04-13.09 30.54-19.52 34.65a6.231 6.231 0 0 1 -6.14.31 65.186 65.186 0 0 0 -6.09-2.56c-9.06-3.43-18.38 4.59-23.32 9.93a22.542 22.542 0 0 1 -10.16 6.25l-25.06 7.37a4.588 4.588 0 0 0 -3.17 3.32c-1.58 6.49-3.13 18.55 10.94 20.46a31.108 31.108 0 0 1 13.17 5.26 47.619 47.619 0 0 0 7.07 4 .01.01 0 0 0 .01.01c.28.63 13.24 29.22 2.1 50.06-7.27 13.61-10.84 32.39-3.71 49.59 3.91 9.44 11.05 18.41 22.57 25.78a35.71 35.71 0 0 1 -9.98 7 .109.109 0 0 1 -.04.02c-.02 0-.03.01-.06.02-1.07.51-2.18.98-3.36 1.41-13.81 5.08-16.67 16.6-14.42 28.97a65.9 65.9 0 0 0 4.49 14.26 94.886 94.886 0 0 0 6.88 12.9c5.54 8.71 14.58 19.97 11.23 27.08-2.08 4.41-.7 10.33.6 14.11a3.094 3.094 0 0 0 4.66 1.54l12.86-8.63a3.8 3.8 0 0 0 1.59-3.98c-.681-3.036-.531-16.216-8.701-22.826z" fill="#ba9b93"/><path d="m416.523 489.323c-.473-1.264-.981-2.644-1.51-4.126-4.488-12.541-4.336-16.225-3.5-36.674.129-3.152.275-6.675.42-10.661a59.618 59.618 0 0 0 -3.6-23.191 46.777 46.777 0 0 0 -13.159-18.593c-4-3.536-16.357-17.029-7.572-42.224a45.483 45.483 0 0 0 1.79-6.8 114.886 114.886 0 0 0 1.847-28.521 11.29 11.29 0 0 1 3.369 8.758 6 6 0 0 0 5.629 6.146c.125.008.25.011.374.011a6 6 0 0 0 5.967-5.419c2.2-22.563-1.612-37.77-11.317-45.2-6.563-5.021-14.014-5.1-18.851-4.389-16.861-21.181-43.434-27.874-58.12-29.979a83.981 83.981 0 0 0 -14.336-.723 77.214 77.214 0 0 1 -30.091-5.218 48.63 48.63 0 0 1 -19.147-13.843c-4.538-5.224-10.83-9.4-24.046-15.955-23.02-11.419-26.955-40.4-27.625-49.867 22.294-1.069 32.946-26.351 34.8-31.241 28.892-6.922 60.094-24.288 69.921-66.006a123.633 123.633 0 0 0 2.387-38.808c-.5-5.4-1.224-9.751-1.749-12.452-.959-4.933-1.317-6.779-3.533-8.3a6.009 6.009 0 0 0 -9.2 6.512c.785 3.842 0 31.816-6.457 48.115-8.164-9.268-17.8-26.232-17.9-26.411a6 6 0 0 0 -11.146 2c-2.11 13.068-.23 17.387 3.561 24.5a85.222 85.222 0 0 1 5.143 11.136c3.549 9.431 2.177 19.288-3.582 25.725-4.5 5.025-10.717 6.84-17.511 5.114a38.459 38.459 0 0 0 -23.323.961q.191-.747.423-1.506c2.62-8.527 6.5-24.335 3.069-34.393-1.994-5.837 2.361-18.852 6.088-26.225a6 6 0 0 0 -7.047-8.47c-11.877 3.5-23.719 24.306-22.979 53.07.393 15.239-8.893 24.419-16.751 29.437a.224.224 0 0 1 -.223 0 69.306 69.306 0 0 0 -6.657-2.807c-9.192-3.477-19.793.6-29.849 11.474a16.438 16.438 0 0 1 -7.449 4.559l-25.058 7.376a10.622 10.622 0 0 0 -7.3 7.654c-2.068 8.483-1.418 15.034 1.986 20.028 2.942 4.315 7.642 6.938 13.971 7.8a24.954 24.954 0 0 1 10.61 4.285 55.6 55.6 0 0 0 5.769 3.432c2.5 6.378 9.67 27.531 1.487 42.844-8.137 15.232-11.095 33.865-5.332 51.014a14.172 14.172 0 0 1 -1.81 1.3c-3.383 2.034-7.059 2.344-11.24.947-10.815-3.616-19.178-2.963-24.854 1.939-6.241 5.388-8.066 14.792-5.58 28.748 4.333 24.331 9.044 36.486 25.431 43.94l4.287 11.223c.075.194.159.385.253.571a9.247 9.247 0 0 0 6.557 4.936 9.41 9.41 0 0 0 1.769.169 9.239 9.239 0 0 0 6.14-2.338l3.247-2.872c1.476 2.762 2.817 4.974 3.731 6.412.9 1.411 1.884 2.888 2.9 4.4 3.035 4.539 9.349 13.984 7.973 16.905-2.893 6.145-1.407 13.516.35 18.618a9.019 9.019 0 0 0 5.7 5.651 9.057 9.057 0 0 0 7.985-1.076l12.857-8.639a9.734 9.734 0 0 0 4.1-10.255c-.055-.269-.15-1.135-.227-1.83-.62-5.638-1.91-17.37-10.557-24.363-6.926-5.6-9.2-18.882-10.566-26.818l-.226-1.312a5.791 5.791 0 0 1 1.673-5.176 123.764 123.764 0 0 1 18.234-14.589c9 9.036 35.075 28.93 86.767 24.085a55.764 55.764 0 0 1 9.351-.051c5.958 14.421 24.074 55.232 40.865 62.143 24.158 9.94 38.865 35.282 38.383 66.135a12.458 12.458 0 0 1 -2.514 7.235l-5.747 7.63a8.35 8.35 0 0 0 5.877 13.847c.094 0 .189.007.283.007s.19 0 .286-.007l17.977-.859a8.151 8.151 0 0 0 8.07 7.073h.273l18.042-.575.152-.007a12.66 12.66 0 0 0 11.12-17.091zm-134.748-419a10.713 10.713 0 0 0 11.025 2.849c.069-.021.138-.043.2-.066a73.1 73.1 0 0 1 -6.951 13.873 67.422 67.422 0 0 1 -5.049 6.838 39.2 39.2 0 0 0 -.416-24.788q.601.671 1.191 1.289zm106.193 222.042c3.233 2.474 5.413 7.157 6.471 13.7a30.778 30.778 0 0 0 -5.616-2.491 69.513 69.513 0 0 0 -4.807-13.078 10.693 10.693 0 0 1 3.952 1.869zm-171.206-220.131c.937 3.435.629 9.318-.761 16.277q.039-1.312 0-2.646a81.133 81.133 0 0 1 .761-13.631zm-89.088 223.3a6 6 0 0 0 -8.771 2.175c-.7 1.36-6.659 13.569-.689 23.4 3.97 6.539 13.524 16.22 17.156 19.8a70.427 70.427 0 0 0 2.846 9.494l-3.07 2.715-2.859-7.486a11.369 11.369 0 0 0 -6-6.348c-10.176-4.578-14.31-10.306-18.742-35.192-1.587-8.908-1-15.309 1.608-17.561 2.152-1.859 6.966-1.728 13.208.359a24.951 24.951 0 0 0 22-2.53 62.085 62.085 0 0 0 14.358 16.268q-1.137.679-2.392 1.291c-1.717.548-14.002 3.852-28.653-6.381zm11.395 18.167a25.883 25.883 0 0 0 -3.312 6.567 28.652 28.652 0 0 0 -.786 2.847 64.51 64.51 0 0 1 -6.5-8.231 8.468 8.468 0 0 1 -.776-5.361 49.707 49.707 0 0 0 11.374 4.182zm241.893 174.11-12.608.6 1.422-1.889a24.2 24.2 0 0 0 4.926-14.265c.562-35.895-16.993-65.561-45.814-77.421-2.578-1.061-9.956-6.191-22.762-30.855-3.316-6.386-6.236-12.644-8.458-17.622a98.672 98.672 0 0 1 18.366 7.236c1.967 11.487 6.359 22.756 15.368 29.521a269.647 269.647 0 0 1 41.56 38.657 22.13 22.13 0 0 1 5.386 14.681c-.233 25.484 1.125 42 4.036 49.123a1.6 1.6 0 0 1 .1.895 1.623 1.623 0 0 1 -1.522 1.343zm24.261 6.323a.611.611 0 0 1 -.463.293l-12.29.391 1.395-3.893a12.753 12.753 0 0 0 -.323-9.769c-2.21-5-3.4-21.668-3.194-44.591a34.126 34.126 0 0 0 -8.308-22.637 281.846 281.846 0 0 0 -43.432-40.406c-14.814-11.125-12.586-45.1-10.478-57.248a6 6 0 1 0 -11.82-2.067 136.951 136.951 0 0 0 -1.621 25.462c-10.335-4.491-25.641-9.281-41.7-7.772-42.607 3.988-65.233-10.033-74.5-18.107 1.492-.63 3-1.206 4.514-1.688 31.25-9.928 31.479-51.794 31.474-53.571a6 6 0 0 0 -12 .037c0 .347-.158 34.806-23.108 42.1-16.311 5.182-31.171 17.91-38.577 25.036a17.772 17.772 0 0 0 -5.176 15.877l.222 1.288c1.648 9.6 4.405 25.674 14.847 34.119 4.805 3.885 5.7 11.99 6.175 16.344.065.587.123 1.118.187 1.6l-8.341 5.6c-.482-2.5-.435-4.582.174-5.874 4.267-9.062-2.7-19.488-8.853-28.688-.96-1.435-1.9-2.834-2.747-4.172-7.223-11.36-13.682-27.227-10.146-37.693 1.512-4.476 4.853-7.61 10.211-9.583 27.874-10.261 28.336-38.345 28.343-39.536a6 6 0 0 0 -5.97-6.031h-.031a6 6 0 0 0 -6 5.97 34.023 34.023 0 0 1 -6.028 17.464c-24.563-18.638-22.4-45.992-12.521-64.485 7.942-14.864 5.262-32.634 2.088-43.981a34.562 34.562 0 0 0 4.2.264 32.73 32.73 0 0 0 20.547-7.29 6 6 0 1 0 -7.426-9.427c-6 4.724-16.159 8.311-30.517-1.429a36.778 36.778 0 0 0 -15.732-6.244c-2.817-.383-4.725-1.28-5.67-2.667-.894-1.312-1.667-4.043-.425-9.642l24.269-7.144a28.438 28.438 0 0 0 12.872-7.924c3.038-3.286 10.755-10.682 16.795-8.4a59.447 59.447 0 0 1 5.528 2.312 12.281 12.281 0 0 0 12.053-.619 48.494 48.494 0 0 0 18.14-19.873q-.094.778-.154 1.546a29.532 29.532 0 0 0 -.083 3.425 8.428 8.428 0 0 0 5.492 7.584 8.208 8.208 0 0 0 8.864-2.024c.946-.88 8.028-4.765 18.846-2.016a31.827 31.827 0 0 0 5.4.893 121.816 121.816 0 0 1 -27.429 7.025c-10.785-.059-26.088 1.776-31.258 11.954a6 6 0 1 0 10.7 5.434c1.789-3.522 10.489-5.3 19.878-5.367a5.953 5.953 0 0 0 1.21.016c-3.98 7.118-11.371 16.794-22.083 16.571a10.124 10.124 0 0 0 -10.291 10.52c.886 22.2 10.385 50.157 34.391 62.065 11.48 5.695 16.988 9.238 20.319 13.074a60.512 60.512 0 0 0 23.881 17.168 88.96 88.96 0 0 0 34.748 6.019 72.4 72.4 0 0 1 12.3.607c13.368 1.916 37.9 8.052 52 27.63 10.253 14.233 13.279 33.388 9 56.932a33.41 33.41 0 0 1 -1.314 5c-2.843 8.154-10.455 36.229 10.953 55.163a34.933 34.933 0 0 1 9.872 13.815 47.662 47.662 0 0 1 2.849 18.546c-.144 3.963-.288 7.468-.417 10.6-.857 20.863-1.088 26.469 4.186 41.209.551 1.542 1.08 2.983 1.574 4.3a.635.635 0 0 1 -.071.609z" fill="#284268"/></svg>