<svg width="150" height="150" viewBox="0 0 150 150" fill="none" xmlns="http://www.w3.org/2000/svg">
<path fill-rule="evenodd" clip-rule="evenodd" d="M0 0H150V150H0V0Z" fill="white"/>
<path fill-rule="evenodd" clip-rule="evenodd" d="M102.772 51.7423C94.5706 51.7423 87.1778 49.2825 78.5539 47.1043C70.176 44.9962 62.3615 43.134 52.7516 43.134C35.5382 43.134 22.7603 47.0693 9.41913 52.7618V103.71C27.1602 95.9791 39.2338 93.5551 52.7516 93.5551C61.693 93.5551 69.5425 95.4881 77.1112 97.3503C85.3825 99.3533 93.1628 101.286 102.772 101.286C121.289 101.286 131.074 97.4203 141.95 92.8531V43.4492C126.321 49.8443 119.246 51.7423 102.772 51.7423Z" fill="white"/>
<path fill-rule="evenodd" clip-rule="evenodd" d="M102.772 53.9206C94.113 53.9206 86.4393 51.3206 78.0613 49.2117C69.8242 47.1387 62.1155 45.3123 52.7866 45.3123C35.4331 45.3123 22.8311 49.4577 11.6019 54.2365V100.547C25.9291 94.4329 37.9318 91.4112 52.7866 91.4112C61.9747 91.4112 69.9293 93.3792 77.6388 95.2765C85.77 97.2795 93.4445 99.1417 102.772 99.1417C120.865 99.1417 130.335 95.3815 139.839 91.4462V46.6118C127.026 51.7774 119.634 53.9206 102.772 53.9206Z" fill="#CC2229"/>
<path fill-rule="evenodd" clip-rule="evenodd" d="M78.4147 92.0081C70.5286 90.0766 62.3623 88.0378 52.7525 88.0378C36.0324 88.0378 23.4304 92.0773 14.9116 95.5216V56.4504C24.4506 52.5152 36.3841 48.6499 52.7525 48.6499C61.6938 48.6499 69.2617 50.4771 77.2521 52.4443C85.1374 54.3773 93.2687 57.2232 102.773 57.2232C119.987 57.2232 128.365 54.6233 136.46 51.4607V89.163C129.138 92.1497 119.952 95.8033 102.773 95.8033C93.8321 95.8033 86.3343 93.9403 78.4147 92.0081V92.0081Z" fill="#FADE2F"/>
<path d="M78.4147 92.0081C70.5286 90.0766 62.3623 88.0378 52.7525 88.0378C36.0324 88.0378 23.4304 92.0773 14.9116 95.5216V56.4504C24.4506 52.5152 36.3841 48.6499 52.7525 48.6499C61.6938 48.6499 69.2617 50.4771 77.2521 52.4443C85.1374 54.3773 93.2687 57.2232 102.773 57.2232C119.987 57.2232 128.365 54.6233 136.46 51.4607V89.163C129.138 92.1497 119.952 95.8033 102.773 95.8033C93.8321 95.8033 86.3343 93.9403 78.4147 92.0081V92.0081Z" stroke="#FADE2F" stroke-width="1.62122" stroke-miterlimit="2.613"/>
<path fill-rule="evenodd" clip-rule="evenodd" d="M38.3902 65.9022C38.5661 64.6726 38.2494 64.04 37.8976 63.724V63.689C40.0096 63.4081 42.4383 63.0563 44.832 62.9155C44.762 63.5481 44.6212 64.6368 44.6212 64.6368H44.6562C45.783 62.7046 47.5775 62.4229 48 62.3879C48.4226 62.3226 48.8542 62.3467 49.2669 62.4587L48.6335 67.5885H48.5985C48.2109 67.4126 47.9292 67.3776 47.4366 67.4476C45.9931 67.6235 44.4087 68.9931 44.1978 70.6094L43.1768 78.9368C43.036 79.957 43.4585 80.7289 43.9511 81.0799V81.1165C41.5574 81.2916 36.9467 81.9585 35.3623 82.2744V82.2394C35.8907 81.8534 36.5592 80.9048 36.665 79.8153L38.3902 65.9022V65.9022ZM50.8163 64.8827C50.9221 64.0742 50.8513 63.0906 50.3937 62.633V62.5988C52.4357 62.5637 55.7095 62.5637 57.5748 62.7388L55.6037 78.5158C55.4979 79.3593 55.8146 80.2729 56.378 80.7639V80.8005C54.1251 80.6589 50.7463 80.6939 47.7892 80.8355V80.8005C48.2817 80.378 48.9502 79.9219 49.1269 78.5508L50.8163 64.8827V64.8827ZM54.6886 61.5101C56.5539 61.5101 58.1382 60.2455 58.2433 58.6985C58.3133 57.153 56.8706 55.8877 55.0045 55.8877C53.1384 55.8877 51.5548 57.153 51.449 58.6985C51.3789 60.2448 52.8225 61.5101 54.6886 61.5101V61.5101ZM67.0088 63.5131C69.5075 63.9349 70.5986 64.6018 71.0919 64.6726C71.5495 64.7427 72.0071 64.7427 72.183 64.7076L71.5845 69.3814H71.5495C71.2328 68.9596 69.5433 67.3434 67.0788 66.8858C65.6361 66.6049 64.7201 67.0967 64.7201 67.8702C64.7201 68.9939 65.8462 69.3456 68.029 70.8569C70.5635 72.614 71.7954 73.8786 71.7954 76.1275C71.7954 81.6083 66.7971 82.6285 64.0859 82.1709C60.9887 81.6783 60.3545 81.1523 58.6651 80.9764C58.2425 80.9063 57.9258 80.9764 57.6441 81.0114L58.2775 75.8466H58.3476C58.7351 76.5135 60.5304 78.3057 63.3809 78.6216C65.0003 78.8325 66.2322 78.5516 66.2322 77.287C66.2322 76.3734 65.9863 76.2668 62.4307 74.0894C60.072 72.649 59.1219 71.2786 59.1219 68.9596C59.1234 65.2345 62.6081 62.7746 67.0088 63.5131V63.5131ZM125.653 74.1945C123.435 73.1751 122.346 72.7533 122.346 71.5588C122.346 70.681 123.224 70.0834 124.668 69.8725C127.026 69.5565 128.892 70.751 129.209 71.172L129.244 71.137L129.842 66.043C129.667 66.113 129.21 66.1831 128.752 66.2881C128.223 66.394 126.605 65.9722 124.281 66.464C119.388 67.4834 116.713 70.0834 116.748 73.351C116.783 75.8108 117.663 77.1104 120.092 78.2699C123.507 79.9219 123.858 80.1671 123.858 81.1515C123.858 82.4861 122.627 83.1895 121.007 83.3997C118.192 83.7872 115.938 81.995 115.552 81.3982H115.515C114.812 82.1701 111.821 84.6658 108.863 85.0517C106.822 85.2976 105.273 83.7156 105.308 80.483L115.305 77.5329C115.446 76.9703 115.411 76.2318 115.446 75.6692C115.446 72.6833 114.179 68.783 107.983 69.2748C103.794 69.6258 98.7603 73.842 98.7603 81.1865C98.7603 88.882 104.321 89.1979 107.384 88.8104C110.94 88.3544 113.721 86.9482 114.882 86.1046C116.995 86.9832 119.143 87.4758 121.712 87.0182C125.372 86.3863 129.526 85.191 129.561 79.7103C129.595 77.3213 128.611 75.5649 125.653 74.1945V74.1945ZM109.426 75.9158L105.484 77.0753C105.87 74.8972 106.75 72.6132 108.159 72.4374C109.708 72.2265 109.531 75.2131 109.426 75.9158V75.9158ZM95.4157 68.6079C97.2802 68.713 98.7596 67.5542 98.7596 65.9722C98.7245 64.3909 97.211 63.0213 95.3807 62.9155C93.5146 62.8104 92.0002 63.9699 92.0352 65.5504C92.036 67.1317 93.5496 68.4671 95.4157 68.6079V68.6079Z" fill="#CC2229"/>
<path fill-rule="evenodd" clip-rule="evenodd" d="M96.1542 85.7537L98.0904 70.1184C95.8375 69.9426 91.7886 69.4866 91.0151 69.2757L90.9801 69.3107C91.4727 69.8725 91.5427 70.8569 91.4377 71.6647L89.7474 84.876C89.6424 85.7545 89.1848 86.3172 89.0439 86.2821C88.9023 86.2821 88.4105 85.6503 88.2339 84.595L86.5802 77.7431C86.3343 76.3019 85.3826 74.5813 83.2348 74.0537C82.5663 73.8779 81.6162 73.7736 81.3002 73.8428L81.2652 73.8078C81.5111 73.5269 83.2348 71.313 84.995 71.7697C86.1927 72.0857 87.0728 72.9993 87.2837 73.2452H87.3187L90.17 69.9068C88.7973 68.5714 87.8829 68.1854 86.9312 67.9745C84.4324 67.3426 82.1803 68.9582 80.631 70.7503L82.143 58.8744L74.8926 57.0823V57.1173C75.3852 57.7149 75.7728 58.5927 75.6319 59.6464L72.9915 81.0091C72.8157 82.3803 72.1822 82.6963 71.6896 83.0122V83.0472C73.9417 83.6098 79.9267 85.0853 79.9267 85.0853L79.9617 85.0137C79.3976 84.4176 79.0801 83.3982 79.1867 82.5196L79.9267 76.5813H79.9968C80.4543 76.6879 80.7002 77.4949 80.7353 77.9524L81.7562 83.2215C82.0021 84.6643 83.199 85.7872 84.0091 85.9981C87.9514 86.9467 93.408 87.8953 96.8935 88.1778V88.1412C96.3659 87.5809 96.05 86.6323 96.1542 85.7537ZM37.4751 54.5174C32.6877 55.6769 30.9275 56.9772 23.4654 58.7694V58.8036C24.0281 59.0853 24.5207 59.8581 24.3806 61.0876L21.9161 83.5056C21.811 84.6285 21.036 85.6837 20.3675 86.2113L20.4025 86.2814C23.6405 85.1219 27.3369 83.9966 30.1882 83.3997V83.3647C29.4139 83.0138 28.9563 81.9235 29.0264 81.1165L30.4691 69.064C30.4691 69.064 32.8278 68.5372 34.4472 68.3263C35.1865 68.2555 35.8907 68.2913 36.0666 68.5372H36.1016L36.665 63.7933C34.2355 64.1801 32.1593 64.6019 30.9625 64.8828L31.4901 60.8067C33.497 60.174 35.0807 59.5071 37.0168 59.0495C38.8821 58.5935 40.3964 59.1554 40.7832 59.6822H40.8182L43.8812 54.7625C42.3684 53.4987 38.8479 54.2014 37.4751 54.5174V54.5174ZM145.331 91.4812C143.958 91.4812 142.867 90.3933 142.867 89.0221C142.867 87.651 143.958 86.5631 145.331 86.5631C146.704 86.5631 147.795 87.651 147.795 89.0221C147.795 90.3933 146.704 91.4812 145.331 91.4812V91.0952C146.457 91.0952 147.372 90.1816 147.372 89.0221C147.372 87.8626 146.457 86.9841 145.331 86.9841C144.205 86.9841 143.253 87.8626 143.253 89.0221C143.253 90.1816 144.205 91.0952 145.331 91.0952V91.4812Z" fill="#CC2229"/>
<path fill-rule="evenodd" clip-rule="evenodd" d="M144.802 90.4275H144.381V87.6875H145.472C146.104 87.6875 146.422 87.8276 146.422 88.3894C146.422 88.9871 146.034 89.1264 145.718 89.1264L146.457 90.4275H145.964L145.296 89.1629H144.802V88.7404H145.472C145.788 88.7404 145.999 88.7054 145.999 88.3894C145.999 88.1435 145.823 88.0735 145.472 88.0735H144.802V90.4275Z" fill="#CC2229"/>
</svg>
