<svg width="220" height="150" viewBox="0 0 220 150" fill="none" xmlns="http://www.w3.org/2000/svg">
<g clip-path="url(#clip0)">
<path d="M73.5477 138.8C74.4947 138.845 75.4792 138.875 76.4527 138.848L82.5115 138.207C85.9632 137.58 89.5543 136.488 93.2691 134.856C95.2938 137.697 97.1206 139.879 99.3702 142.058L103.163 145.425C103.781 145.933 104.403 146.434 105.031 146.929C111.598 134.183 114.412 123.188 116.583 108.642C113.369 109.351 110.087 109.708 106.797 109.706C100.129 109.706 93.8064 108.264 88.1055 105.667C85.3323 117.443 80.5487 128.946 73.5477 138.8Z" fill="white" stroke="white" stroke-width="45.258"/>
<path d="M149.754 136.66C148.898 136.704 148.041 136.731 147.184 136.74L141.495 136.568C136.519 136.222 131.456 135.378 126.459 134.155C124.328 137.16 121.737 139.827 119.104 142.157L115.242 145.349C114.574 145.866 113.9 146.375 113.221 146.878C111.851 144.002 110.39 141.325 108.818 138.791C112.79 129.223 114.886 120.019 116.583 108.643C121.883 107.472 126.928 105.349 131.475 102.376C136.663 113.802 142.708 125.238 149.754 136.66Z" fill="white" stroke="white" stroke-width="45.258"/>
<path d="M116.001 6.98917C111.232 6.32495 106.983 3.21535 103.819 2.27428C99.6825 1.04468 97.1644 4.16916 97.6323 6.98545C92.8943 7.83033 87.9005 6.19476 84.6033 6.28085C80.2914 6.3935 78.8564 10.1445 80.168 12.677C75.9212 14.9529 70.6633 14.9438 67.5524 16.0486C63.4861 17.4934 63.2759 21.5058 65.3033 23.5075C61.9648 26.9896 56.9621 28.6119 54.3434 30.6279C50.9213 33.2635 51.9561 37.1447 54.5001 38.4194C52.3971 42.7666 48.1381 45.8613 46.2685 48.5915C43.8251 52.1597 46.0038 55.5297 48.8161 55.9532C48.1545 60.7404 45.0563 65.0046 44.1183 68.1807C42.8929 72.3323 46.0027 74.8616 48.8077 74.3914C49.652 79.1498 48.0184 84.166 48.1042 87.4775C48.2164 91.8061 51.953 93.2461 54.4758 91.9294C56.7434 96.1926 56.7344 101.471 57.8355 104.594C59.2747 108.676 63.2717 108.887 65.2662 106.851C68.735 110.203 70.351 115.225 72.3593 117.854C74.9848 121.289 78.8511 120.25 80.1215 117.696C84.4525 119.807 87.5353 124.082 90.2545 125.959C93.809 128.412 97.1665 126.224 97.5879 123.401C102.357 124.065 106.605 127.175 109.769 128.117C113.905 129.347 116.424 126.225 115.956 123.409C120.696 122.562 125.693 124.201 128.992 124.115C133.304 124.002 134.739 120.252 133.427 117.719C137.674 115.442 142.932 115.451 146.043 114.346C150.109 112.901 150.319 108.888 148.292 106.886C151.63 103.404 156.633 101.781 159.252 99.765C162.674 97.1294 161.639 93.2477 159.094 91.9735C161.197 87.6253 165.456 84.5305 167.326 81.8003C169.769 78.2316 167.59 74.8616 164.777 74.4387C165.439 69.6515 168.537 65.3867 169.475 62.2101C170.7 58.0585 167.59 55.5292 164.785 55.9994C163.94 51.241 165.573 46.2243 165.488 42.9122C165.375 38.5836 161.639 37.1431 159.116 38.4604C156.847 34.1971 156.856 28.9185 155.755 25.7961C154.314 21.7141 150.318 21.5031 148.323 23.5388C144.854 20.1874 143.238 15.1649 141.229 12.5362C138.604 9.10032 134.737 10.1402 133.467 12.6945C129.136 10.5834 126.053 6.30795 123.333 4.43166C119.779 1.97831 116.422 4.16597 116.001 6.98917Z" fill="white" stroke="white" stroke-width="45.258"/>
<path d="M99.6963 20.1965C102.045 19.8252 104.419 19.6385 106.796 19.638C109.212 19.638 111.582 19.8319 113.897 20.1965L116 6.98918C111.231 6.32496 106.983 3.21589 103.819 2.2743C99.6825 1.0447 97.1639 4.16705 97.6319 6.9828L99.6963 20.1965Z" fill="url(#paint0_linear)"/>
<path d="M113.897 20.197C116.244 20.5721 118.56 21.1309 120.821 21.8682C123.082 22.6064 125.282 23.5205 127.401 24.6021L133.468 12.6935C129.136 10.5823 126.054 6.30742 123.334 4.43114C119.779 1.97831 116.423 4.16598 116.001 6.9897L113.897 20.197Z" fill="url(#paint1_linear)"/>
<path d="M127.402 24.6021C129.519 25.6877 131.549 26.9374 133.473 28.3398C135.396 29.7432 137.207 31.2951 138.89 32.9813L148.325 23.5378C144.855 20.1864 143.239 15.1644 141.23 12.5357C138.605 9.0998 134.739 10.1397 133.469 12.694L127.402 24.6021Z" fill="url(#paint2_linear)"/>
<path d="M138.889 32.9813C140.569 34.6705 142.115 36.4885 143.513 38.4189C144.91 40.3503 146.154 42.3881 147.236 44.5138L159.116 38.4593C156.848 34.1961 156.856 28.9179 155.755 25.795C154.315 21.713 150.319 21.5026 148.325 23.5377L138.889 32.9813Z" fill="url(#paint3_linear)"/>
<path d="M147.236 44.5142C148.313 46.6417 149.224 48.8502 149.959 51.1197C150.693 53.3901 151.25 55.7145 151.624 58.0717L164.786 55.9988C163.941 51.2409 165.575 46.2242 165.489 42.9127C165.376 38.5841 161.64 37.1441 159.117 38.4614L147.236 44.5142Z" fill="url(#paint4_linear)"/>
<path d="M151.623 58.0717C151.986 60.3944 152.18 62.7739 152.18 65.199C152.18 67.6242 151.986 70.0037 151.622 72.3264L164.779 74.4386C165.44 69.6514 168.538 65.3872 169.476 62.2106C170.701 58.059 167.59 55.5302 164.786 55.9999L151.623 58.0717Z" fill="url(#paint5_linear)"/>
<path d="M151.622 72.3259C150.874 77.0473 149.393 81.6218 147.234 85.8828L159.096 91.9723C161.199 87.6246 165.457 84.5305 167.327 81.8003C169.77 78.2316 167.591 74.8621 164.778 74.4386L151.622 72.3259Z" fill="url(#paint6_linear)"/>
<path d="M147.234 85.8828C146.167 87.9759 144.93 90.0148 143.511 91.9772C142.091 93.9395 140.541 95.7504 138.887 97.4142L148.294 106.886C151.632 103.403 156.635 101.781 159.253 99.765C162.676 97.1294 161.64 93.2482 159.095 91.9734L147.234 85.8828Z" fill="url(#paint7_linear)"/>
<path d="M138.887 97.4142C135.517 100.792 131.641 103.619 127.399 105.792L133.43 117.718C137.676 115.442 142.934 115.451 146.045 114.345C150.112 112.9 150.321 108.888 148.293 106.886L138.887 97.4142Z" fill="url(#paint8_linear)"/>
<path d="M127.398 105.792C125.279 106.874 123.078 107.788 120.818 108.526C118.556 109.262 116.241 109.821 113.893 110.197L115.957 123.409C120.698 122.562 125.694 124.202 128.993 124.116C133.305 124.002 134.739 120.252 133.427 117.719L127.398 105.792Z" fill="#CC203C"/>
<path d="M86.1898 105.789C84.1048 104.719 82.0737 103.477 80.1194 102.051C78.1651 100.626 76.3606 99.0705 74.7033 97.4099L65.268 106.853C68.7367 110.205 70.3527 115.226 72.361 117.855C74.9865 121.29 78.8522 120.251 80.1226 117.696L86.1898 105.789Z" fill="url(#paint9_linear)"/>
<path d="M99.6593 110.058C97.3114 109.682 94.9963 109.123 92.735 108.386C90.4742 107.648 88.2742 106.733 86.1549 105.652L80.0887 117.559C84.4197 119.67 87.502 123.945 90.2212 125.821C93.7757 128.274 97.1322 126.087 97.5541 123.264L99.6593 110.058Z" fill="#CC203C"/>
<path d="M74.7027 97.4094C73.0233 95.7203 71.4777 93.9023 70.0801 91.9718C68.6831 90.0406 67.4386 88.0028 66.3578 85.877L54.4779 91.9309C56.7456 96.1936 56.7361 101.471 57.8371 104.594C59.2764 108.677 63.2734 108.887 65.2674 106.851L74.7027 97.4094Z" fill="url(#paint10_linear)"/>
<path d="M66.3578 85.8763C65.2807 83.7488 64.3703 81.5403 63.6349 79.2709C62.901 77.0007 62.3446 74.6765 61.9706 72.3195L48.8093 74.3923C49.6536 79.1508 48.0201 84.1664 48.1058 87.4779C48.218 91.8064 51.9546 93.2459 54.4774 91.9297L66.3578 85.8763Z" fill="url(#paint11_linear)"/>
<path d="M61.9712 72.32C61.6015 69.9625 61.4157 67.5797 61.4154 65.1932C61.4154 62.768 61.6092 60.3885 61.9728 58.0659L48.8173 55.9537C48.1556 60.7408 45.0574 65.0046 44.1199 68.1806C42.8945 72.3322 46.0044 74.8605 48.8093 74.3908L61.9712 72.32Z" fill="#CC203C"/>
<path d="M61.9727 58.0659C62.3422 55.7443 62.8911 53.4217 63.638 51.1155C64.3849 48.8094 65.3012 46.6063 66.3619 44.51L54.5007 38.42C52.3976 42.7671 48.1392 45.8613 46.2696 48.5915C43.8262 52.1597 46.0054 55.5291 48.8178 55.9526L61.9727 58.0659Z" fill="url(#paint12_linear)"/>
<path d="M66.362 44.5106C67.4435 42.3854 68.6884 40.3482 70.0853 38.4173C71.4833 36.487 73.0293 34.6691 74.709 32.9803L65.3028 23.5085C61.9643 26.9906 56.9621 28.6124 54.3435 30.6284C50.9213 33.264 51.9562 37.1447 54.5007 38.4194L66.362 44.5106Z" fill="url(#paint13_linear)"/>
<path d="M74.7096 32.9797C76.3924 31.2941 78.2034 29.7426 80.1262 28.3392C82.0501 26.937 84.0801 25.6877 86.1976 24.6026L80.168 12.677C75.9212 14.9534 70.6639 14.9438 67.553 16.0486C63.4867 17.4934 63.277 21.5052 65.3044 23.5075L74.7096 32.9797Z" fill="url(#paint14_linear)"/>
<path d="M86.1978 24.6032C88.317 23.5218 90.5171 22.6081 92.7779 21.8703C95.0392 21.1336 97.3543 20.5752 99.7021 20.2002L97.6388 6.98757C92.8991 7.83458 87.9022 6.19476 84.6039 6.28085C80.292 6.3935 78.8575 10.1445 80.1691 12.677L86.1978 24.6032Z" fill="url(#paint15_linear)"/>
<path d="M106.797 110.809C131.891 110.809 152.233 90.3881 152.233 65.1975C152.233 40.0069 131.891 19.5859 106.797 19.5859C81.7029 19.5859 61.3603 40.0069 61.3603 65.1975C61.3603 90.3881 81.7029 110.809 106.797 110.809Z" fill="#CC203C"/>
<path d="M73.5477 138.8C74.4947 138.845 75.4792 138.875 76.4527 138.848L82.5115 138.207C85.9632 137.58 89.5543 136.488 93.2691 134.856C95.2938 137.697 97.1206 139.879 99.3702 142.058L103.163 145.425C103.781 145.933 104.403 146.434 105.031 146.929C111.598 134.183 114.412 123.188 116.583 108.642C113.369 109.351 110.087 109.708 106.797 109.706C100.129 109.706 93.8064 108.264 88.1055 105.667C85.3323 117.443 80.5487 128.946 73.5477 138.8Z" fill="#CC203C"/>
<path d="M149.754 136.66C148.898 136.704 148.041 136.731 147.184 136.74L141.495 136.568C136.519 136.222 131.456 135.378 126.459 134.155C124.328 137.16 121.737 139.827 119.104 142.157L115.242 145.349C114.574 145.866 113.9 146.375 113.221 146.878C111.851 144.002 110.39 141.325 108.818 138.791C112.79 129.223 114.886 120.019 116.583 108.643C121.883 107.472 126.928 105.349 131.475 102.376C136.663 113.802 142.708 125.238 149.754 136.66Z" fill="#CC203C"/>
<path d="M82.5204 138.212C80.4497 138.588 78.4128 138.806 76.4458 138.862C83.1175 129.207 87.7217 118.071 90.4128 106.642C91.9283 107.233 93.4747 107.741 95.045 108.164C92.5545 118.74 88.4108 129.076 82.5204 138.212ZM99.3972 142.048C100.607 143.222 101.864 144.346 103.163 145.419C109.345 133.303 112.147 122.719 114.263 109.093C112.585 109.372 110.893 109.556 109.195 109.645C107.238 121.63 104.595 131.333 99.3972 142.048Z" fill="url(#paint16_linear)"/>
<path d="M125.181 105.799C126.64 105.149 128.064 104.423 129.447 103.622C134.499 114.674 140.38 125.709 147.173 136.754C145.295 136.775 143.407 136.704 141.494 136.572C135.295 126.317 129.886 116.06 125.181 105.799ZM115.248 145.335C116.512 144.352 117.806 143.313 119.1 142.167C116.996 137.831 114.47 133.604 111.968 130.085C111.368 132.031 110.708 133.959 109.989 135.865C111.902 138.797 113.626 141.939 115.248 145.335Z" fill="url(#paint17_linear)"/>
<path d="M145.911 51.6166C140.309 35.339 124.909 23.6477 106.79 23.6477C83.938 23.6477 65.4124 42.2453 65.4124 65.1852C65.4124 88.1251 83.9385 106.723 106.79 106.723C125.697 106.723 141.642 93.9931 146.585 76.606L150.495 78.8458C144.701 97.5453 127.325 111.123 106.79 111.123C81.5174 111.123 61.029 90.5551 61.029 65.1852C61.029 39.8148 81.5174 19.2474 106.79 19.2474C126.926 19.2474 144.024 32.3022 150.144 50.4406L145.911 51.6166Z" fill="url(#paint18_linear)"/>
<path d="M214.392 44.6801H213.525V39.3865H215.525C216.799 39.3865 217.449 39.8339 217.449 40.9078C217.449 41.867 216.863 42.2634 216.072 42.3527L217.55 44.6795H216.569L215.206 42.4164H214.391V44.6801H214.392ZM215.36 41.6751C216.009 41.6751 216.583 41.6114 216.583 40.8441C216.583 40.2048 215.959 40.1278 215.437 40.1278H214.392V41.6751H215.36ZM215.334 46.7259C212.595 46.7259 210.647 44.6673 210.647 41.9435C210.647 39.0666 212.813 37.1611 215.334 37.1611C217.831 37.1611 219.996 39.0661 219.996 41.9435C219.996 44.8209 217.831 46.7259 215.334 46.7259ZM215.334 37.9927C213.271 37.9927 211.666 39.6166 211.666 41.944C211.666 44.1179 213.066 45.8953 215.334 45.8953C217.372 45.8953 218.977 44.2842 218.977 41.944C218.977 39.6166 217.372 37.9927 215.334 37.9927Z" fill="black"/>
<path d="M208.827 47.5633C205.903 44.4388 202.01 42.7868 197.57 42.7868C193.424 42.7868 189.629 44.3979 186.592 47.4464C185.101 48.9433 183.826 50.7834 182.816 52.8292C181.96 50.7377 180.814 48.9023 179.394 47.3853C176.47 44.2608 172.577 42.6087 168.137 42.6087C163.992 42.6087 160.196 44.2199 157.16 47.2684C156.715 47.7183 156.293 48.1916 155.898 48.6861C155.446 47.2806 154.705 46.0085 153.705 45.0052C152.223 43.5169 150.285 42.6975 148.249 42.6975C147.177 42.6975 146.164 42.8819 145.23 43.2294H133.949C132.608 43.2294 131.976 42.8888 130.13 42.8888C127.992 42.8888 126.21 43.3389 125.03 43.8809C124.891 43.9452 124.725 44.0206 124.582 44.0833C124.162 44.0164 123.634 43.8442 123 43.6343C121.464 43.1263 119.361 42.4302 116.342 42.4302C111.951 42.4302 107.921 44.0142 104.958 46.89V46.6196L104.958 42.7852H100.832C102.901 41.2484 104.263 38.4678 104.263 35.2173C104.263 32.5148 103.313 30.0109 101.657 28.3488C100.387 27.0735 98.7584 26.3705 97.073 26.3705C95.3876 26.3705 93.7599 27.073 92.4889 28.3488C90.8332 30.0109 89.883 32.5142 89.883 35.2173C89.883 37.9199 90.8327 40.4232 92.4889 42.0859C92.7473 42.3452 93.0236 42.5742 93.3089 42.7852H89.4887L89.4897 25.0399L71.5125 25.041V35.0282H72.7914C73.2478 35.028 73.6856 35.2098 74.0086 35.5335C74.3315 35.8572 74.5133 36.2964 74.5138 36.7546V42.4871C73.5037 42.2699 72.4735 42.1614 71.4405 42.1635C67.8469 42.1635 64.5904 43.5259 62.0226 46.1041C60.7909 47.3412 59.7507 48.8141 58.9038 50.5161C58.1532 49.0463 57.248 47.7237 56.1825 46.5855C53.2584 43.4605 49.3657 41.809 44.9251 41.809C41.9942 41.809 39.2396 42.6183 36.8025 44.1683C36.7067 39.2632 34.8985 34.695 31.7982 31.5833C29.1531 28.9275 25.7765 27.5257 22.033 27.5257H0.00959159V37.515H1.28846C1.51414 37.5151 1.73758 37.5598 1.946 37.6467C2.15442 37.7336 2.34373 37.8609 2.50308 38.0213C2.66244 38.1817 2.78871 38.3721 2.87467 38.5815C2.96063 38.791 3.00459 39.0154 3.00403 39.242V72.3651C3.00361 72.8232 2.82206 73.2623 2.49929 73.586C2.17651 73.9097 1.73891 74.0916 1.28264 74.0916H0.00376892V84.0787H23.9985V74.1064L20.3233 74.107C19.8672 74.1068 19.4299 73.9249 19.1074 73.6012C18.7849 73.2774 18.6036 72.8384 18.6035 72.3805L18.6061 63.3169H19.9147C22.6857 63.3169 25.3149 62.6915 27.6334 61.5171C27.6053 61.9927 27.5863 62.4683 27.5863 62.9439C27.5863 70.212 29.8058 76.6087 33.6752 80.4925C36.5897 83.4188 40.42 84.9656 44.7515 84.9656C49.2376 84.9656 53.1859 83.4076 56.1692 80.4595C57.1987 79.4388 58.0844 78.2815 58.8016 77.02C59.6263 78.6114 60.631 80.0196 61.8082 81.2013C64.3776 83.7801 67.6177 85.1431 71.1785 85.1431C71.9699 85.1431 73.5764 85.0968 75.4111 84.5665H101.039C100.978 85.1057 100.948 85.6478 100.947 86.1904C100.947 89.2655 102.084 92.0318 104.233 94.1908C107.068 97.0368 111.348 98.5411 116.609 98.5411C126.41 98.5411 133.493 93.0632 134.593 84.9661H150.122V74.979H148.843C148.387 74.9788 147.949 74.7969 147.627 74.4731C147.304 74.1494 147.123 73.7104 147.123 73.2525L147.118 63.3174H150.807C150.805 63.4593 150.797 63.6012 150.797 63.7425C150.797 71.0112 153.016 77.4073 156.886 81.2917C159.801 84.2185 163.63 85.7648 167.961 85.7648C172.448 85.7648 176.396 84.2068 179.38 81.2587C180.809 79.8463 181.951 78.1794 182.782 76.3116C183.725 78.3091 184.911 80.0573 186.318 81.4697C189.233 84.396 193.063 85.9422 197.394 85.9422C201.88 85.9422 205.828 84.3837 208.812 81.4367C211.664 78.6189 213.371 74.7924 213.749 70.3704L214.021 65.4902C214.486 58.0069 212.642 51.64 208.827 47.5633ZM18.8719 51.7197V38.3269C19.4303 38.3269 20.5154 41.4094 20.5154 45.0233C20.5154 48.3598 19.4795 51.7197 18.8719 51.7197ZM197.461 54.1608C198.197 54.1608 198.598 55.875 198.598 58.0478H196.227C196.227 56.3325 196.69 54.1608 197.461 54.1608ZM198.04 75.0831C196.636 75.0831 195.874 71.4023 195.874 69.086H200.456C200.456 71.6929 199.478 75.0831 198.04 75.0831Z" fill="black"/>
<path d="M44.8187 53.1847C45.5555 53.1847 45.9552 54.8989 45.9552 57.0717H43.5843C43.5848 55.357 44.0485 53.1847 44.8187 53.1847ZM45.3973 74.1075C43.994 74.1075 43.2318 70.4262 43.2318 68.1099H47.8142C47.8142 70.7168 46.836 74.1075 45.3973 74.1075ZM116.458 53.004C117.109 53.004 117.228 54.9685 117.228 57.3916C117.228 59.8146 117.108 61.7791 116.458 61.7791C115.808 61.7791 115.687 59.8146 115.687 57.3916C115.688 54.968 115.808 53.004 116.458 53.004ZM104.899 75.3355C104.481 75.3355 104.157 74.8312 104.157 74.514L104.159 67.3995C104.677 68.041 105.259 68.6281 105.895 69.1519C105.247 70.4224 104.866 71.8773 104.808 73.4459C104.784 74.0889 104.818 74.7212 104.899 75.3355ZM116.208 87.6788C113 87.6788 112.297 86.2063 112.657 84.6691C113.55 84.9704 115.051 85.1813 116.332 85.1813C118.261 85.1813 119.717 84.7095 120.752 84.7908C121.323 84.8359 121.447 85.1165 121.447 85.5017C121.447 86.7106 118.784 87.6788 116.208 87.6788ZM132.227 74.9248C130.996 73.176 128.68 71.0983 127 70.5292C128.856 69.3023 131.452 66.2384 132.227 63.5258V74.9248ZM168.028 53.9834C168.765 53.9834 169.164 55.6976 169.164 57.8704H166.794C166.794 56.1551 167.258 53.9834 168.028 53.9834ZM168.607 74.9062C167.204 74.9062 166.442 71.2248 166.442 68.9086H171.023C171.023 71.5155 170.045 74.9062 168.607 74.9062ZM74.3423 69.408C74.3423 71.694 74.1994 73.0379 73.2635 73.0379C71.7782 73.0379 71.3743 68.4925 71.3743 64.055C71.3743 61.6351 71.8385 57.6472 72.7183 55.6768C72.8739 55.3283 73.101 55.0679 73.5043 55.0679C73.8643 55.0679 74.1718 55.2698 74.2369 55.6891C74.3391 56.3485 74.3423 57.2587 74.3423 58.3502V69.408ZM90.4398 74.2861C90.4398 75.3509 89.1144 75.4397 89.1144 74.3748V52.0157C89.6443 52.0157 90.4398 52.6369 90.4398 53.5237V74.2861Z" fill="#CC203C"/>
<path d="M197.57 46.6201C188.878 46.6201 184.047 55.9059 184.047 63.9217C184.047 72.8833 187.847 82.1107 197.393 82.1107C204.563 82.1107 209.344 77.053 209.944 70.0442H204.199C203.787 74.1842 202.281 78.9166 198.012 78.9166C192.562 78.9166 191.913 71.1394 191.913 65.2533H210.209C210.916 53.8957 205.79 46.6201 197.57 46.6201ZM202.519 61.8812H192.001C192.001 57.5638 193.622 50.0805 197.482 50.0805C201.309 50.081 202.726 55.3464 202.519 61.8812ZM168.137 46.4427C159.445 46.4427 154.614 55.7284 154.614 63.7442C154.614 72.7059 158.415 81.9332 167.96 81.9332C175.131 81.9332 179.912 76.8761 180.511 69.8667H174.766C174.355 74.0061 172.849 78.7386 168.579 78.7386C163.13 78.7386 162.481 70.9614 162.481 65.0753H180.777C181.483 53.7183 176.358 46.4427 168.137 46.4427ZM173.087 61.7043H162.569C162.569 57.3869 164.19 49.9035 168.049 49.9035C171.877 49.9035 173.294 55.1684 173.087 61.7043ZM122.707 73.4158C121.204 73.4158 116.873 73.6815 115.901 73.6815C113.28 73.6815 111.836 72.5284 111.836 70.9311C111.836 70.0437 112.278 69.8667 112.72 69.245C120.232 71.6075 129.159 67.2375 129.159 58.8641C129.159 52.7421 127.392 52.3872 127.392 50.7011C127.392 49.9078 128.663 49.37 130.118 49.37V47.0638C127.435 47.0638 126.189 47.9507 124.917 47.9507C122.442 47.9507 120.585 46.2652 116.343 46.2652C109.744 46.2652 104.146 50.8791 104.146 58.2434C104.146 62.9567 106.386 66.7805 110.51 68.3582C106.842 70.7509 107.253 76.79 109.803 78.7391C106.914 79.982 104.765 81.9029 104.765 86.1927C104.765 91.1913 109.214 94.7101 116.609 94.7101C124.24 94.7101 130.928 90.5983 130.928 82.7318C130.927 77.705 126.803 73.4158 122.707 73.4158ZM116.609 48.9274C119.468 48.9274 120.851 53.4217 120.851 57.1791C120.851 62.1172 119.053 65.7858 116.432 65.7858C113.573 65.7858 112.101 61.4684 112.101 57.0904C112.101 52.7124 113.691 48.9274 116.609 48.9274ZM116.52 91.516C110.717 91.516 108.742 88.4691 108.742 84.9509C108.742 83.0873 110.068 81.2238 112.101 80.2482C115.283 82.1999 118.641 80.9576 120.763 80.9576C123.149 80.9576 125.271 82.5241 125.271 85.6603C125.27 89.2672 120.674 91.516 116.52 91.516ZM44.9278 45.6445C36.2356 45.6445 31.4049 54.9303 31.4049 62.9461C31.4049 71.9077 35.2055 81.1345 44.751 81.1345C51.9208 81.1345 56.7023 76.0774 57.3015 69.0681H51.5566C51.1448 73.208 49.6399 77.941 45.3698 77.941C39.9203 77.941 39.2713 70.1638 39.2713 64.2772H57.5672C58.2739 52.9201 53.1473 45.6445 44.9278 45.6445ZM49.877 60.9056H39.3592C39.3592 56.5882 40.9805 49.1049 44.8394 49.1049C48.6675 49.1049 50.0845 54.3702 49.877 60.9056ZM19.9146 59.4858C26.6901 59.4858 32.9955 54.7831 32.9955 44.5797C32.9955 37.9253 28.9879 31.3612 22.0357 31.3612H3.82816V33.6838C5.49133 33.6838 6.82843 35.0372 6.82843 36.7063V74.9042C6.82898 75.3009 6.75163 75.6939 6.60079 76.0606C6.44995 76.4273 6.22858 76.7605 5.94934 77.0413C5.6701 77.3221 5.33847 77.5448 4.97341 77.6968C4.60835 77.8488 4.21702 77.9271 3.82181 77.9272V80.2477H20.1793V77.941H17.7952C16.9966 77.9408 16.2308 77.6223 15.6661 77.0554C15.1015 76.4885 14.7843 75.7196 14.7843 74.918L14.788 59.4858H19.9146ZM15.0532 34.2428H18.5886C22.4475 34.2428 24.3335 39.7574 24.3335 45.0234C24.3335 51.2341 21.8589 56.3804 17.6163 56.3804C15.4952 56.3804 15.0532 55.3464 15.0532 52.3877V34.2428ZM85.6706 75.4504L85.6738 28.8749L75.3343 28.8759V31.197C75.7293 31.1971 76.1204 31.2755 76.4852 31.4275C76.85 31.5795 77.1814 31.8023 77.4604 32.083C77.7393 32.3637 77.9604 32.6969 78.111 33.0635C78.2615 33.4301 78.3386 33.8229 78.3378 34.2194V49.0156C76.6862 46.9443 74.1258 45.999 71.4437 45.999C65.4638 45.999 59.9534 51.292 59.9534 64.8086C59.9534 74.3021 64.3146 81.3115 71.1785 81.3115C73.7611 81.3115 76.167 80.7737 77.9842 78.5611V80.7349H88.6804V78.4723C88.2851 78.4726 87.8935 78.3945 87.5282 78.2427C87.1629 78.0909 86.831 77.8683 86.5515 77.5877C86.272 77.307 86.0503 76.9738 85.8992 76.6071C85.748 76.2403 85.6703 75.8473 85.6706 75.4504ZM78.1604 69.9555C78.1604 74.2729 76.5698 76.8761 73.2106 76.8761C68.9378 76.8761 67.5536 70.9895 67.5536 64.3654C67.5536 58.2126 69.2025 50.8791 73.6521 50.8791C77.0891 50.8791 78.1599 54.1141 78.1599 58.482L78.1604 69.9555Z" fill="white"/>
<path d="M97.075 40.2319C98.9366 40.2319 100.446 37.9875 100.446 35.2189C100.446 32.4503 98.9366 30.206 97.075 30.206C95.2134 30.206 93.7043 32.4503 93.7043 35.2189C93.7043 37.9875 95.2134 40.2319 97.075 40.2319Z" fill="white"/>
<path d="M101.134 75.3478L101.141 46.6206H90.7998V48.9273H91.507C92.5095 48.9273 93.8863 49.9619 93.8863 52.1214V75.3749C93.8863 77.0445 92.4577 78.3931 90.7945 78.3931L90.7998 80.7359H104.141L104.145 78.3708C103.347 78.3706 102.581 78.0521 102.016 77.4852C101.451 76.9183 101.134 76.1495 101.134 75.3478ZM148.251 46.5314C145.671 46.5314 143.94 48.3837 143.299 51.0603V47.0638H132.959V49.3705H133.667C134.669 49.3705 136.046 50.4046 136.046 52.5646V75.8181C136.046 77.4876 134.618 78.8363 132.954 78.8363L132.959 81.1345H146.303V78.8139C145.908 78.8138 145.517 78.7355 145.152 78.5834C144.787 78.4314 144.456 78.2087 144.177 77.9279C143.898 77.6472 143.677 77.314 143.526 76.9474C143.375 76.5808 143.298 76.188 143.299 75.7915V54.2129C143.299 53.6854 143.508 53.1795 143.879 52.8065C144.251 52.4335 144.755 52.224 145.28 52.224C146.374 52.224 147.27 53.1146 147.27 54.2129V59.4857H152.582V51.8552C152.582 48.9273 150.726 46.5314 148.251 46.5314Z" fill="white"/>
</g>
<defs>
<linearGradient id="paint0_linear" x1="98.6679" y1="11.0975" x2="114.929" y2="11.0975" gradientUnits="userSpaceOnUse">
<stop stop-color="#F9E196"/>
<stop offset="0.128" stop-color="#E7AE76"/>
<stop offset="0.262" stop-color="#DA7F5D"/>
<stop offset="0.359" stop-color="#D4614E"/>
<stop offset="0.41" stop-color="#D25349"/>
<stop offset="1" stop-color="#CC203C"/>
</linearGradient>
<linearGradient id="paint1_linear" x1="115.667" y1="11.2064" x2="131.217" y2="16.2495" gradientUnits="userSpaceOnUse">
<stop stop-color="#F9E196"/>
<stop offset="0.128" stop-color="#E7AE76"/>
<stop offset="0.262" stop-color="#DA7F5D"/>
<stop offset="0.359" stop-color="#D4614E"/>
<stop offset="0.41" stop-color="#D25349"/>
<stop offset="1" stop-color="#CC203C"/>
</linearGradient>
<linearGradient id="paint2_linear" x1="132.063" y1="16.6427" x2="144.385" y2="26.3908" gradientUnits="userSpaceOnUse">
<stop stop-color="#F9E196"/>
<stop offset="0.128" stop-color="#E7AE76"/>
<stop offset="0.262" stop-color="#DA7F5D"/>
<stop offset="0.359" stop-color="#D4614E"/>
<stop offset="0.41" stop-color="#D25349"/>
<stop offset="1" stop-color="#CC203C"/>
</linearGradient>
<linearGradient id="paint3_linear" x1="145.736" y1="26.7608" x2="154.455" y2="40.1511" gradientUnits="userSpaceOnUse">
<stop stop-color="#F9E196"/>
<stop offset="0.128" stop-color="#E7AE76"/>
<stop offset="0.262" stop-color="#DA7F5D"/>
<stop offset="0.359" stop-color="#D4614E"/>
<stop offset="0.41" stop-color="#D25349"/>
<stop offset="1" stop-color="#CC203C"/>
</linearGradient>
<linearGradient id="paint4_linear" x1="155.633" y1="40.6071" x2="160.001" y2="56.9225" gradientUnits="userSpaceOnUse">
<stop stop-color="#F9E196"/>
<stop offset="0.128" stop-color="#E7AE76"/>
<stop offset="0.262" stop-color="#DA7F5D"/>
<stop offset="0.359" stop-color="#D4614E"/>
<stop offset="0.41" stop-color="#D25349"/>
<stop offset="1" stop-color="#CC203C"/>
</linearGradient>
<linearGradient id="paint5_linear" x1="160.687" y1="59.3959" x2="160.687" y2="77.8342" gradientUnits="userSpaceOnUse">
<stop stop-color="#F9E196"/>
<stop offset="0.128" stop-color="#E7AE76"/>
<stop offset="0.262" stop-color="#DA7F5D"/>
<stop offset="0.359" stop-color="#D4614E"/>
<stop offset="0.41" stop-color="#D25349"/>
<stop offset="1" stop-color="#CC203C"/>
</linearGradient>
<linearGradient id="paint6_linear" x1="160.372" y1="74.3246" x2="155.641" y2="89.5498" gradientUnits="userSpaceOnUse">
<stop stop-color="#F9E196"/>
<stop offset="0.128" stop-color="#E7AE76"/>
<stop offset="0.262" stop-color="#DA7F5D"/>
<stop offset="0.359" stop-color="#D4614E"/>
<stop offset="0.41" stop-color="#D25349"/>
<stop offset="1" stop-color="#CC203C"/>
</linearGradient>
<linearGradient id="paint7_linear" x1="155.24" y1="90.41" x2="145.436" y2="103.07" gradientUnits="userSpaceOnUse">
<stop stop-color="#F9E196"/>
<stop offset="0.128" stop-color="#E7AE76"/>
<stop offset="0.262" stop-color="#DA7F5D"/>
<stop offset="0.359" stop-color="#D4614E"/>
<stop offset="0.41" stop-color="#D25349"/>
<stop offset="1" stop-color="#CC203C"/>
</linearGradient>
<linearGradient id="paint8_linear" x1="144.566" y1="104.638" x2="131.528" y2="112.936" gradientUnits="userSpaceOnUse">
<stop stop-color="#F9E196"/>
<stop offset="0.128" stop-color="#E7AE76"/>
<stop offset="0.262" stop-color="#DA7F5D"/>
<stop offset="0.359" stop-color="#D4614E"/>
<stop offset="0.41" stop-color="#D25349"/>
<stop offset="1" stop-color="#CC203C"/>
</linearGradient>
<linearGradient id="paint9_linear" x1="81.366" y1="113.551" x2="68.3206" y2="103.805" gradientUnits="userSpaceOnUse">
<stop stop-color="#F9E196"/>
<stop offset="0.128" stop-color="#E7AE76"/>
<stop offset="0.262" stop-color="#DA7F5D"/>
<stop offset="0.359" stop-color="#D4614E"/>
<stop offset="0.41" stop-color="#D25349"/>
<stop offset="1" stop-color="#CC203C"/>
</linearGradient>
<linearGradient id="paint10_linear" x1="67.8374" y1="103.171" x2="58.032" y2="90.1486" gradientUnits="userSpaceOnUse">
<stop stop-color="#F9E196"/>
<stop offset="0.128" stop-color="#E7AE76"/>
<stop offset="0.262" stop-color="#DA7F5D"/>
<stop offset="0.359" stop-color="#D4614E"/>
<stop offset="0.41" stop-color="#D25349"/>
<stop offset="1" stop-color="#CC203C"/>
</linearGradient>
<linearGradient id="paint11_linear" x1="58.0828" y1="89.7989" x2="52.988" y2="73.8483" gradientUnits="userSpaceOnUse">
<stop stop-color="#F9E196"/>
<stop offset="0.128" stop-color="#E7AE76"/>
<stop offset="0.262" stop-color="#DA7F5D"/>
<stop offset="0.359" stop-color="#D4614E"/>
<stop offset="0.41" stop-color="#D25349"/>
<stop offset="1" stop-color="#CC203C"/>
</linearGradient>
<linearGradient id="paint12_linear" x1="53.5996" y1="56.4016" x2="57.6032" y2="40.8105" gradientUnits="userSpaceOnUse">
<stop stop-color="#F9E196"/>
<stop offset="0.128" stop-color="#E7AE76"/>
<stop offset="0.262" stop-color="#DA7F5D"/>
<stop offset="0.359" stop-color="#D4614E"/>
<stop offset="0.41" stop-color="#D25349"/>
<stop offset="1" stop-color="#CC203C"/>
</linearGradient>
<linearGradient id="paint13_linear" x1="58.7555" y1="39.5864" x2="68.1982" y2="26.5618" gradientUnits="userSpaceOnUse">
<stop stop-color="#F9E196"/>
<stop offset="0.128" stop-color="#E7AE76"/>
<stop offset="0.262" stop-color="#DA7F5D"/>
<stop offset="0.359" stop-color="#D4614E"/>
<stop offset="0.41" stop-color="#D25349"/>
<stop offset="1" stop-color="#CC203C"/>
</linearGradient>
<linearGradient id="paint14_linear" x1="68.5257" y1="26.1503" x2="81.9283" y2="17.1297" gradientUnits="userSpaceOnUse">
<stop stop-color="#F9E196"/>
<stop offset="0.128" stop-color="#E7AE76"/>
<stop offset="0.262" stop-color="#DA7F5D"/>
<stop offset="0.359" stop-color="#D4614E"/>
<stop offset="0.41" stop-color="#D25349"/>
<stop offset="1" stop-color="#CC203C"/>
</linearGradient>
<linearGradient id="paint15_linear" x1="82.783" y1="16.0817" x2="97.9694" y2="11.759" gradientUnits="userSpaceOnUse">
<stop stop-color="#F9E196"/>
<stop offset="0.128" stop-color="#E7AE76"/>
<stop offset="0.262" stop-color="#DA7F5D"/>
<stop offset="0.359" stop-color="#D4614E"/>
<stop offset="0.41" stop-color="#D25349"/>
<stop offset="1" stop-color="#CC203C"/>
</linearGradient>
<linearGradient id="paint16_linear" x1="99.3199" y1="111.121" x2="91.6767" y2="139.4" gradientUnits="userSpaceOnUse">
<stop stop-color="#F2CA30"/>
<stop offset="0.085" stop-color="#F4CE45"/>
<stop offset="0.47" stop-color="#FAE5A2"/>
<stop offset="0.64" stop-color="#FCEEC7"/>
<stop offset="0.753" stop-color="#F9E19B"/>
<stop offset="0.922" stop-color="#F4D15E"/>
<stop offset="1" stop-color="#F2CA44"/>
</linearGradient>
<linearGradient id="paint17_linear" x1="124.971" y1="115.294" x2="128.612" y2="136.328" gradientUnits="userSpaceOnUse">
<stop stop-color="#F2CA30"/>
<stop offset="0.085" stop-color="#F4CE45"/>
<stop offset="0.47" stop-color="#FAE5A2"/>
<stop offset="0.64" stop-color="#FCEEC7"/>
<stop offset="0.753" stop-color="#F9E19B"/>
<stop offset="0.922" stop-color="#F4D15E"/>
<stop offset="1" stop-color="#F2CA44"/>
</linearGradient>
<linearGradient id="paint18_linear" x1="60.9215" y1="65.1858" x2="150.387" y2="65.1858" gradientUnits="userSpaceOnUse">
<stop stop-color="white"/>
<stop offset="0.028" stop-color="#FEFCF4"/>
<stop offset="0.077" stop-color="#FCF4D5"/>
<stop offset="0.141" stop-color="#F9E8A4"/>
<stop offset="0.218" stop-color="#F5D761"/>
<stop offset="0.27" stop-color="#F2CA30"/>
<stop offset="0.309" stop-color="#F3CD3D"/>
<stop offset="0.382" stop-color="#F5D660"/>
<stop offset="0.481" stop-color="#F9E598"/>
<stop offset="0.6" stop-color="#FDF8E4"/>
<stop offset="0.64" stop-color="white"/>
<stop offset="0.779" stop-color="#FAE9B2"/>
<stop offset="0.93" stop-color="#F4D363"/>
<stop offset="1" stop-color="#F2CA44"/>
</linearGradient>
<clipPath id="clip0">
<rect width="220" height="150" fill="white"/>
</clipPath>
</defs>
</svg>
