<svg width="150" height="150" viewBox="0 0 150 150" fill="none" xmlns="http://www.w3.org/2000/svg">
<path fill-rule="evenodd" clip-rule="evenodd" d="M0 0H150V150H0V0Z" fill="white"/>
<path fill-rule="evenodd" clip-rule="evenodd" d="M97.7292 61.5319C97.7292 58.8861 100.375 58.8861 100.375 58.8861H102.545V57.3515H89.3147V58.8861H91.4851C91.4851 58.8861 94.2897 58.8861 94.2897 61.5319V91.8562L64.6011 57.3507H55.8154V58.8853H57.9857C57.9857 58.8853 60.6316 58.8853 60.6316 61.5311V94.5005C60.6316 97.1478 57.9857 97.1478 57.9857 97.1478H55.8154V98.6816H69.3107V97.1478H67.1403C67.1403 97.1478 64.4945 97.1478 64.4945 94.5005V64.9186L93.6017 98.6824H97.6763L97.7292 61.5319ZM143.031 89.5792C143.031 89.5792 142.82 96.0358 138.85 95.9308H120.858V77.3547H137.633C140.279 77.3547 140.279 80.0006 140.279 80.0006V82.1709H141.814V70.3168H140.279V72.4335C140.279 72.4335 140.279 75.0793 137.633 75.0793H120.858V59.8907H137.157C141.127 59.732 141.338 65.289 141.338 65.289H142.873V59.4682C142.873 56.9274 140.174 57.2457 140.174 57.2457H110.537V58.8861H112.706C112.706 58.8861 115.352 58.8861 115.352 61.5319V94.5012C115.352 97.1486 112.706 97.1486 112.706 97.1486H110.537V98.6824H141.813C141.813 98.6824 144.513 98.8419 144.513 96.3541V89.58H143.031V89.5792ZM143.931 57.6682C143.931 56.6099 144.83 55.8162 145.835 55.8162C146.894 55.8162 147.795 56.6099 147.795 57.6682C147.795 57.9257 147.745 58.1807 147.647 58.4187C147.548 58.6567 147.404 58.8729 147.222 59.0549C147.04 59.2369 146.824 59.3811 146.586 59.4793C146.348 59.5775 146.093 59.6276 145.835 59.6269C144.83 59.6269 143.931 58.7795 143.931 57.6682Z" fill="black"/>
<path fill-rule="evenodd" clip-rule="evenodd" d="M145.835 59.3087C146.735 59.3087 147.424 58.6208 147.424 57.6683C147.424 56.7687 146.735 56.1337 145.835 56.1337C144.989 56.1337 144.301 56.7687 144.301 57.6683C144.302 58.6208 144.989 59.3087 145.835 59.3087Z" fill="white"/>
<path fill-rule="evenodd" clip-rule="evenodd" d="M145.466 58.7795H145.149V56.6099H145.943C146.472 56.6099 146.736 56.7687 146.736 57.2449C146.736 57.6153 146.472 57.7741 146.154 57.827L146.789 58.7795H146.418L145.836 57.827H145.466V58.7795Z" fill="black"/>
<path fill-rule="evenodd" clip-rule="evenodd" d="M145.835 57.5625C146.153 57.5625 146.366 57.5625 146.366 57.192C146.366 56.9274 146.153 56.8745 145.889 56.8745H145.466V57.5625H145.835Z" fill="white"/>
<path fill-rule="evenodd" clip-rule="evenodd" d="M109.691 77.249L107.309 73.7565L105.138 77.249L107.309 80.7944L109.691 77.249ZM58.5149 77.249L56.1329 73.7565L53.9633 77.249L56.1329 80.7944L58.5149 77.249ZM2.20535 102.864V104.452H145.148V102.864H2.20535ZM56.1866 48.6716H2.20535V50.2591H56.1866V48.6716ZM88.4688 48.6716V50.2591H145.148V48.6716H88.4688ZM2.84113 82.2232C6.28071 101.911 25.8622 100.006 25.8622 100.006C55.287 97.4134 51.0529 72.5923 51.0529 72.5923C48.9891 53.6466 26.7089 55.1812 26.7089 55.1812C-2.08089 58.7795 2.84113 82.2232 2.84113 82.2232Z" fill="black"/>
<path fill-rule="evenodd" clip-rule="evenodd" d="M45.2842 73.6506C47.4017 97.2001 25.8622 96.4071 25.8622 96.4071C9.9857 95.7184 8.55695 79.5773 8.55695 79.5773C7.23326 59.627 27.291 58.5679 27.291 58.5679C44.173 58.3562 45.2842 73.6506 45.2842 73.6506Z" fill="white"/>
<path fill-rule="evenodd" clip-rule="evenodd" d="M119.533 100.535C119.586 100.428 119.693 100.324 119.957 100.324C120.275 100.324 120.539 100.535 120.539 101.064C120.539 101.435 120.38 101.805 119.957 101.805C119.798 101.805 119.64 101.752 119.533 101.593V101.805H119.162V99.8459H119.533V100.535Z" fill="black"/>
<path fill-rule="evenodd" clip-rule="evenodd" d="M119.852 100.641C119.587 100.641 119.534 100.852 119.534 101.117C119.534 101.328 119.587 101.541 119.852 101.541C120.116 101.541 120.169 101.275 120.169 101.064C120.169 100.853 120.063 100.641 119.852 100.641Z" fill="white"/>
<path fill-rule="evenodd" clip-rule="evenodd" d="M120.698 100.377H121.069V100.588C121.176 100.481 121.227 100.323 121.441 100.323H121.546V100.693H121.441C121.123 100.693 121.069 100.905 121.069 101.064V101.805H120.698V100.377ZM122.815 101.488C122.815 101.699 122.868 101.699 122.921 101.752V101.805H122.497C122.444 101.699 122.444 101.699 122.444 101.593C122.391 101.7 122.233 101.805 121.969 101.805C121.758 101.805 121.545 101.699 121.545 101.434C121.545 101.117 121.704 101.01 121.969 100.959L122.286 100.906C122.391 100.906 122.444 100.853 122.444 100.799C122.444 100.641 122.286 100.641 122.18 100.641C122.022 100.641 121.969 100.746 121.969 100.799H121.598C121.651 100.377 121.969 100.324 122.233 100.324C122.444 100.324 122.815 100.377 122.815 100.746V101.488Z" fill="black"/>
<path fill-rule="evenodd" clip-rule="evenodd" d="M122.444 101.064C122.391 101.117 122.339 101.17 122.18 101.17C122.022 101.17 121.915 101.223 121.915 101.381C121.915 101.541 122.022 101.541 122.126 101.541C122.286 101.541 122.444 101.434 122.444 101.275V101.064H122.444Z" fill="white"/>
<path fill-rule="evenodd" clip-rule="evenodd" d="M124.35 101.805H123.979V100.906C123.979 100.799 123.979 100.641 123.714 100.641C123.555 100.641 123.397 100.746 123.397 100.959V101.805H123.026V100.377H123.397V100.588C123.432 100.506 123.491 100.436 123.567 100.389C123.642 100.342 123.73 100.319 123.82 100.323C124.137 100.323 124.35 100.481 124.35 100.798V101.805ZM125.884 101.805H125.514V101.593C125.408 101.752 125.25 101.805 125.09 101.805C124.668 101.805 124.508 101.434 124.508 101.064C124.508 100.535 124.773 100.324 125.09 100.324C125.355 100.324 125.462 100.429 125.514 100.535V99.8459H125.884V101.805Z" fill="black"/>
<path fill-rule="evenodd" clip-rule="evenodd" d="M125.197 101.541C125.461 101.541 125.514 101.328 125.514 101.117C125.514 100.852 125.461 100.641 125.197 100.641C124.984 100.641 124.879 100.852 124.879 101.064C124.879 101.275 124.932 101.541 125.197 101.541Z" fill="white"/>
<path fill-rule="evenodd" clip-rule="evenodd" d="M126.784 99.8466H127.63C128.319 99.8466 128.425 100.429 128.425 100.8C128.425 101.171 128.265 101.806 127.63 101.806H126.784V99.8466Z" fill="black"/>
<path fill-rule="evenodd" clip-rule="evenodd" d="M127.208 101.435H127.579C127.896 101.435 128.001 101.118 128.001 100.8C128.001 100.218 127.737 100.165 127.579 100.165H127.208V101.435Z" fill="white"/>
<path fill-rule="evenodd" clip-rule="evenodd" d="M129.483 99.7946C129.748 99.7946 130.436 99.8996 130.436 100.799C130.436 101.753 129.748 101.857 129.483 101.857C129.219 101.857 128.531 101.752 128.531 100.799C128.531 99.8996 129.219 99.7946 129.483 99.7946Z" fill="black"/>
<path fill-rule="evenodd" clip-rule="evenodd" d="M129.483 101.488C129.696 101.488 130.012 101.381 130.012 100.799C130.012 100.27 129.696 100.164 129.483 100.164C129.272 100.164 128.954 100.271 128.954 100.799C128.954 101.381 129.271 101.488 129.483 101.488Z" fill="white"/>
<path fill-rule="evenodd" clip-rule="evenodd" d="M131.547 100.746H132.341V101.805H132.076L132.025 101.541C131.918 101.646 131.759 101.857 131.443 101.857C130.966 101.857 130.543 101.487 130.543 100.799C130.543 100.324 130.808 99.7946 131.495 99.7946C132.077 99.7946 132.289 100.164 132.341 100.428H131.919C131.919 100.377 131.812 100.11 131.495 100.11C131.23 100.11 130.966 100.323 130.966 100.852C130.966 101.381 131.23 101.487 131.495 101.487C131.601 101.487 131.919 101.487 131.972 101.063H131.548V100.746H131.547ZM133.664 101.805H133.24V99.8467H134.617V100.217H133.664V100.641H134.511V100.959H133.664V101.805ZM135.621 99.7946C135.886 99.7946 136.575 99.8996 136.575 100.799C136.575 101.753 135.886 101.857 135.621 101.857C135.411 101.857 134.722 101.752 134.722 100.799C134.722 99.8996 135.411 99.7946 135.621 99.7946Z" fill="black"/>
<path fill-rule="evenodd" clip-rule="evenodd" d="M135.621 101.488C135.886 101.488 136.151 101.381 136.151 100.799C136.151 100.27 135.886 100.164 135.621 100.164C135.411 100.164 135.092 100.271 135.092 100.799C135.093 101.381 135.411 101.488 135.621 101.488Z" fill="white"/>
<path fill-rule="evenodd" clip-rule="evenodd" d="M137.632 99.7946C137.897 99.7946 138.585 99.8996 138.585 100.799C138.585 101.753 137.897 101.857 137.632 101.857C137.368 101.857 136.681 101.752 136.681 100.799C136.681 99.8996 137.368 99.7946 137.632 99.7946Z" fill="black"/>
<path fill-rule="evenodd" clip-rule="evenodd" d="M137.632 101.488C137.845 101.488 138.163 101.381 138.163 100.799C138.163 100.27 137.846 100.164 137.632 100.164C137.421 100.164 137.103 100.271 137.103 100.799C137.104 101.381 137.421 101.488 137.632 101.488Z" fill="white"/>
<path fill-rule="evenodd" clip-rule="evenodd" d="M138.796 99.8466H139.645C140.278 99.8466 140.438 100.429 140.438 100.8C140.438 101.171 140.279 101.806 139.645 101.806H138.796V99.8466Z" fill="black"/>
<path fill-rule="evenodd" clip-rule="evenodd" d="M139.168 101.435H139.592C139.909 101.435 140.014 101.118 140.014 100.8C140.014 100.218 139.75 100.165 139.592 100.165H139.168V101.435Z" fill="white"/>
<path fill-rule="evenodd" clip-rule="evenodd" d="M58.3561 53.2754V52.9579C58.8324 52.905 59.0441 52.905 59.097 52.8521C59.1499 52.8521 59.2028 52.7992 59.2557 52.7462C59.3086 52.6404 59.4145 52.2171 59.5732 51.4762C59.5732 51.2654 59.732 50.3121 60.0495 48.5658C60.2611 47.2429 60.367 46.5021 60.367 46.3433C60.367 46.1846 60.367 46.1316 60.2611 46.0787C60.1553 46.0258 59.8907 45.9729 59.4145 45.9729V45.6554C59.4145 45.6554 59.732 45.7083 60.209 45.7083H61.7436C62.2198 45.7083 62.5381 45.6554 62.6969 45.6554C63.226 45.6554 63.5964 45.7612 63.861 45.8671C64.1256 45.9729 64.3373 46.1316 64.496 46.3962C64.6548 46.6608 64.7077 46.9783 64.7077 47.2958C64.7077 47.6662 64.6548 47.9837 64.496 48.3542C64.3902 48.6717 64.1785 48.9892 63.9669 49.2537C63.7552 49.5183 63.4906 49.6771 63.226 49.8358C62.9085 49.9946 62.5381 50.1004 62.1677 50.1004C61.956 50.1004 61.7973 50.0475 61.6385 50.0475C61.4707 49.9994 61.3104 49.9282 61.1623 49.8358V49.4654C61.4269 49.6242 61.6914 49.73 61.9568 49.73C62.2743 49.73 62.5918 49.6242 62.8564 49.4654C63.121 49.3067 63.3326 49.0421 63.4914 48.6717C63.6656 48.3271 63.7562 47.9465 63.756 47.5604C63.756 47.2429 63.7031 46.9783 63.5972 46.7666C63.4914 46.555 63.3326 46.3962 63.0681 46.2375C62.8035 46.1316 62.5389 46.0787 62.1685 46.0787C61.9568 46.0787 61.6922 46.1316 61.3218 46.1846L61.0043 48.1425L60.4751 50.8942C60.3693 51.7408 60.2635 52.2171 60.2635 52.3758V52.5875C60.2635 52.6933 60.2635 52.7462 60.3164 52.7992C60.3693 52.8521 60.4222 52.905 60.581 52.905C60.6868 52.9579 60.9522 52.9579 61.3218 52.9579V53.2754C60.7926 53.2754 60.3164 53.2225 59.9989 53.2225C59.8907 53.2225 59.3616 53.2754 58.3561 53.2754ZM65.0244 49.2537L64.9186 49.0421C65.2361 48.7775 65.6594 48.5129 66.1886 48.2483C66.4002 48.0896 66.6119 48.0367 66.7177 48.0367C66.7707 48.0367 66.8236 48.0896 66.8765 48.1425C66.9294 48.1954 66.9294 48.2483 66.9294 48.3542C66.9294 48.4071 66.9294 48.5658 66.8765 48.8304C66.3473 50.8412 66.1357 52.0583 66.1357 52.4295V52.5883C66.1886 52.6412 66.2415 52.6412 66.2944 52.6412C66.3473 52.6412 66.4002 52.5883 66.5061 52.5354C66.7707 52.4295 67.0882 52.1649 67.4057 51.8474C67.7232 51.5299 67.9877 51.1595 68.2523 50.6833C68.4632 50.4187 68.5698 50.1533 68.6757 49.7837C68.8344 49.4133 68.9402 48.8841 69.0461 48.2491C69.1519 48.2491 69.4173 48.1962 69.7869 48.0903L69.8927 48.1433L69.5752 49.1487C69.4694 49.6249 69.3107 50.207 69.2048 50.7891C69.0461 51.3712 68.9403 51.7945 68.9403 52.0591C68.9403 52.1649 68.8873 52.2708 68.8873 52.3766C68.8873 52.4824 68.9403 52.5354 68.9403 52.5883C68.9932 52.6412 69.0461 52.6412 69.099 52.6412C69.1519 52.6412 69.2048 52.6412 69.2577 52.5883C69.3636 52.5354 69.5753 52.3766 69.9457 52.112L70.0515 52.3237C69.4694 52.7999 68.9932 53.1174 68.7815 53.2762C68.5698 53.382 68.4111 53.4349 68.3053 53.4349C68.2531 53.4349 68.1994 53.382 68.1465 53.3291C68.0936 53.2762 68.0407 53.1704 68.0407 53.0116C68.0407 52.9587 68.0936 52.8529 68.0936 52.747C68.0936 52.5883 68.1994 52.2708 68.3045 51.7945L68.5161 50.842H68.4632C68.0928 51.3183 67.8811 51.6358 67.8282 51.7416C67.5636 52.0591 67.2461 52.3766 66.9286 52.6941C66.5574 52.9587 66.2407 53.2233 65.9232 53.3291C65.8174 53.382 65.7116 53.4349 65.6586 53.4349C65.6041 53.4359 65.5504 53.4216 65.5036 53.3935C65.4568 53.3654 65.4188 53.3248 65.3941 53.2762C65.2882 53.1704 65.2882 53.0116 65.2882 52.7999C65.2882 52.5354 65.3411 52.112 65.4999 51.5829C65.6586 50.7362 65.8174 50.0483 65.9232 49.572C65.9761 49.3074 66.0291 49.0958 66.0291 48.9899C66.0291 48.937 65.9761 48.8841 65.9761 48.8312C65.9232 48.8312 65.9232 48.7783 65.8703 48.7783C65.7653 48.7775 65.4477 48.9362 65.0244 49.2537ZM70.7931 53.3812L70.6873 53.3283C70.846 52.7462 71.0048 52.2171 71.1106 51.8467C71.2694 51.0521 71.4281 50.365 71.481 49.7829C71.5339 49.4125 71.5869 49.2008 71.5869 49.0421C71.5869 48.9362 71.5869 48.8833 71.5339 48.8304C71.5339 48.8304 71.481 48.7775 71.4281 48.7775C71.3223 48.7775 71.0048 48.9884 70.5285 49.3067L70.4227 49.1479C70.8989 48.7775 71.3223 48.46 71.6927 48.2483C71.9044 48.1425 72.116 48.0367 72.2226 48.0367C72.2756 48.0367 72.3285 48.0896 72.3814 48.1425C72.4343 48.1425 72.4343 48.2483 72.4343 48.3012C72.4343 48.4071 72.4343 48.6187 72.3814 48.8304C72.2654 49.3575 72.1595 49.8867 72.0639 50.4179C72.4343 49.73 72.8047 49.2008 73.2288 48.7246C73.4405 48.4071 73.6522 48.2483 73.758 48.1425C73.9167 48.0896 74.0226 48.0367 74.1284 48.0367C74.1813 48.0367 74.2872 48.0896 74.3401 48.0896C74.2872 48.4071 74.2342 48.8304 74.1813 49.3067H74.021C73.9152 49.2008 73.8094 49.095 73.6506 49.095C73.512 49.1012 73.3803 49.1576 73.2802 49.2537C73.0156 49.4125 72.8039 49.6771 72.5394 50.0475C72.2649 50.4744 72.0512 50.9375 71.9044 51.4233C71.8514 51.7408 71.6927 52.3229 71.5339 53.2225C71.2164 53.2754 70.9511 53.3283 70.7931 53.3812ZM75.8202 46.2375C75.8202 46.0787 75.8731 45.8671 75.9797 45.7612C76.0848 45.6025 76.2443 45.5496 76.4023 45.5496C76.5618 45.5496 76.6147 45.6025 76.7198 45.6554C76.7727 45.7083 76.8264 45.8141 76.8264 45.9729C76.8264 46.1846 76.7735 46.3433 76.6669 46.5021C76.5618 46.6608 76.4023 46.7137 76.2443 46.7137C76.0848 46.7137 75.9797 46.6608 75.9268 46.6079C75.8202 46.5013 75.8202 46.3962 75.8202 46.2375ZM74.4444 49.3067L74.3914 49.095C74.9735 48.6187 75.3969 48.3542 75.6085 48.2483C75.8194 48.1425 75.9797 48.0896 76.084 48.0896C76.1906 48.0896 76.1906 48.1425 76.2435 48.1954C76.3095 48.2679 76.3468 48.362 76.3486 48.46C76.3486 48.5129 76.2972 48.6187 76.2972 48.7246C76.2004 49.115 76.0945 49.5032 75.9797 49.8887C75.6085 51.3704 75.3969 52.2171 75.3969 52.4824C75.3969 52.5354 75.4498 52.5883 75.4498 52.6412C75.5019 52.6412 75.5019 52.6941 75.5548 52.6941C75.6077 52.6941 75.7144 52.6412 75.8194 52.5883C75.926 52.5354 76.1369 52.4295 76.4544 52.2179L76.561 52.4295C75.9789 52.8529 75.5019 53.1704 75.2373 53.3291C75.0786 53.382 74.9727 53.4349 74.9198 53.4349C74.8669 53.4349 74.7611 53.382 74.7082 53.2762C74.6023 53.2233 74.6023 53.1174 74.6023 52.9587V52.5883C74.6552 52.4295 74.7082 52.1649 74.814 51.7945C75.1844 50.3129 75.3961 49.3603 75.3961 49.0428C75.3961 48.937 75.3961 48.8841 75.3432 48.8841C75.3432 48.8312 75.2902 48.8312 75.2902 48.8312C75.2373 48.8312 75.1844 48.8312 75.1315 48.8841C75.0794 48.8833 74.9206 49.0421 74.4444 49.3067ZM77.1968 53.3812L77.0902 53.2754C77.3548 52.5346 77.5657 51.635 77.7789 50.5767C77.9369 49.7829 77.9898 49.3067 77.9898 49.0421C77.9898 48.9892 77.9898 48.9362 77.9369 48.8833C77.9369 48.8833 77.8839 48.8304 77.8302 48.8304C77.8302 48.8304 77.7789 48.8304 77.7252 48.8833C77.6186 48.8833 77.5127 48.9362 77.4077 49.0421L76.9836 49.3067L76.8785 49.095L77.4077 48.7246C77.5657 48.5658 77.7789 48.46 77.9898 48.3542C78.2007 48.2483 78.361 48.1425 78.4652 48.1425C78.5182 48.0896 78.5719 48.0896 78.6248 48.0896C78.6761 48.0896 78.7827 48.1425 78.7827 48.1425C78.8357 48.2483 78.8894 48.3012 78.8894 48.4071C78.8894 48.5129 78.8894 48.5658 78.8364 48.6717C78.8364 48.8304 78.7835 49.1479 78.6769 49.5712L78.4123 50.5767H78.4652C78.7827 50.0475 79.0473 49.6242 79.4714 49.2008C79.894 48.8304 80.3181 48.5129 80.7407 48.3012C81.0582 48.1954 81.3227 48.0896 81.4823 48.0896C81.5889 48.0896 81.6402 48.1425 81.6932 48.1954C81.7596 48.2677 81.7975 48.3618 81.7998 48.46C81.7998 48.7246 81.6932 49.3067 81.4286 50.2592C81.1111 51.5292 80.9531 52.27 80.9531 52.4817V52.6404C81.006 52.6933 81.0582 52.6933 81.0582 52.6933C81.1111 52.6933 81.2177 52.6933 81.3227 52.5875C81.5889 52.4817 81.7998 52.3229 82.0114 52.1642L82.118 52.3758C81.8006 52.6404 81.536 52.7992 81.3764 52.9579C81.0068 53.1696 80.7414 53.2754 80.5827 53.3812H80.3718C80.2652 53.3812 80.2123 53.3812 80.1594 53.3283C80.108 53.2225 80.0543 53.1167 80.0543 53.0108C80.0543 52.905 80.0543 52.7463 80.1072 52.5875C80.1586 52.3229 80.2652 51.7937 80.4769 50.9471C80.7414 49.9417 80.901 49.3067 80.901 49.095C80.901 48.9892 80.848 48.9362 80.848 48.8833C80.7951 48.8304 80.7414 48.8304 80.6901 48.8304C80.5835 48.8304 80.4255 48.8833 80.266 48.9362C80.0014 49.095 79.6839 49.3067 79.4193 49.6242C79.1018 49.9417 78.8901 50.2592 78.7306 50.6296C78.5197 50.9471 78.361 51.4233 78.2014 51.9525C78.1485 52.1642 78.0435 52.5875 77.9369 53.2225C77.6723 53.2225 77.4085 53.3283 77.1968 53.3812ZM86.0339 52.5346C85.9288 52.5875 85.8759 52.6404 85.823 52.6404C85.7701 52.6404 85.7164 52.6404 85.7164 52.5875C85.665 52.5346 85.665 52.4817 85.665 52.4287V52.27C85.7164 52.0054 85.7701 51.6879 85.823 51.3167C85.8759 51.1058 85.9825 50.7875 86.0876 50.3642C86.2471 49.6763 86.4588 48.9355 86.6697 48.1417L86.5646 48.0359L86.1934 48.2475C86.0149 48.202 85.8384 48.149 85.6642 48.0888C85.5576 48.0888 85.3981 48.0359 85.2401 48.0359C85.0292 48.0359 84.816 48.0888 84.6051 48.1417C84.3405 48.2475 84.023 48.4592 83.6519 48.7238C83.441 48.8825 83.2822 49.0413 83.1764 49.3059C82.9257 49.8125 82.7305 50.3448 82.5943 50.8934C82.4363 51.5284 82.3297 52.0576 82.3297 52.4817C82.3297 52.8521 82.3826 53.1167 82.4877 53.2754C82.5406 53.3812 82.6472 53.3812 82.7001 53.3812H82.911C83.1219 53.2754 83.3865 53.0637 83.7048 52.8521C83.9694 52.5875 84.2869 52.3229 84.5514 51.9525C84.711 51.7937 84.9226 51.5292 85.1864 51.1587H85.2394C84.9748 52.0583 84.8682 52.6933 84.8682 53.0638C84.8682 53.1696 84.8682 53.2225 84.9748 53.2754C85.0277 53.3812 85.0814 53.3812 85.1327 53.3812H85.2923C85.4502 53.2754 85.6098 53.1696 85.8743 53.0108L86.6681 52.3758L86.6152 52.1642C86.3514 52.3758 86.1397 52.5346 86.0339 52.5346Z" fill="black"/>
<path fill-rule="evenodd" clip-rule="evenodd" d="M85.2401 50.4708C85.0292 50.9471 84.816 51.3175 84.5001 51.6879C84.1826 52.0583 83.918 52.3229 83.6005 52.4817C83.4939 52.5875 83.388 52.6404 83.3359 52.6404C83.283 52.6404 83.2293 52.6404 83.2293 52.5875C83.1764 52.5875 83.1764 52.5346 83.1764 52.4817C83.1235 52.4817 83.1235 52.3758 83.1235 52.27C83.1235 51.7408 83.2301 51.1058 83.441 50.365C83.5352 49.9201 83.696 49.4919 83.918 49.095C84.023 48.8833 84.076 48.7775 84.1826 48.7245C84.3405 48.6187 84.5522 48.5658 84.8697 48.5658C85.0292 48.5658 85.1872 48.6187 85.3467 48.6187C85.4518 48.6716 85.6113 48.7245 85.7163 48.7775C85.6113 49.4654 85.4518 50.0475 85.2401 50.4708Z" fill="white"/>
</svg>
