<svg width="150" height="150" viewBox="0 0 150 150" fill="none" xmlns="http://www.w3.org/2000/svg">
<path fill-rule="evenodd" clip-rule="evenodd" d="M0 0H150V150H0V0Z" fill="#FDE62F"/>
<path fill-rule="evenodd" clip-rule="evenodd" d="M73.1511 59.6987C74.3153 59.6987 75.274 58.7407 75.274 57.5587C75.274 56.3774 74.316 55.4194 73.1511 55.4194C72.5907 55.4301 72.0569 55.6602 71.6643 56.0603C71.2718 56.4604 71.0519 56.9986 71.0519 57.5591C71.0519 58.1196 71.2718 58.6577 71.6643 59.0578C72.0569 59.4579 72.5907 59.688 73.1511 59.6987ZM62.0596 60.6403C62.0596 60.0727 61.8341 59.5284 61.4328 59.1271C61.0315 58.7257 60.4872 58.5003 59.9196 58.5003C59.352 58.5003 58.8077 58.7257 58.4064 59.1271C58.005 59.5284 57.7796 60.0727 57.7796 60.6403C57.7796 61.2079 58.005 61.7522 58.4064 62.1535C58.8077 62.5548 59.352 62.7803 59.9196 62.7803C60.4872 62.7803 61.0315 62.5548 61.4328 62.1535C61.8341 61.7522 62.0596 61.2079 62.0596 60.6403ZM64.3879 65.2098C64.3879 64.4565 63.9942 63.7896 63.4121 63.413C63.066 63.1871 62.6612 63.068 62.2479 63.0706C61.6814 63.0734 61.1388 63.2997 60.7381 63.7002C60.3375 64.1008 60.111 64.6433 60.1079 65.2098C60.111 65.7764 60.3374 66.319 60.7381 66.7196C61.1388 67.1203 61.6813 67.3468 62.2479 67.3498C62.6611 67.3522 63.066 67.2331 63.4121 67.0074C63.7116 66.8127 63.9577 66.5464 64.1281 66.2324C64.2985 65.9185 64.3878 65.567 64.3879 65.2098ZM82.9251 70.4135C77.6008 66.8533 71.3714 66.5281 64.1817 70.1054C63.6168 70.5505 63.4284 70.9785 63.6339 71.3551C63.8051 71.8516 64.3187 71.7318 64.8829 71.5263C70.72 68.4105 76.6942 68.1879 82.1703 71.5948C82.4784 71.7489 82.7703 71.7489 83.164 71.4407C83.164 71.4236 83.164 71.4065 83.1804 71.3894C83.2318 71.2046 83.2318 71.0092 83.1804 70.8244C83.1298 70.6688 83.0422 70.5278 82.9251 70.4135V70.4135ZM83.1827 68.1373C76.8662 64.8168 70.1909 64.5943 63.4121 68.0175C63.3094 68.0689 63.2238 68.1202 63.1382 68.1545C62.4876 68.6681 62.2822 69.1295 62.5218 69.5583C62.6588 69.9521 63.0012 70.0034 63.4121 69.9007C63.5814 69.8626 63.7474 69.8111 63.9086 69.7466C70.3784 66.2891 76.986 66.0495 83.0457 69.8151C83.0971 69.8322 83.1306 69.8494 83.1827 69.8665C83.473 69.9863 83.7648 69.9521 84.1586 69.661C84.2955 69.1817 84.1749 68.805 83.8846 68.514C83.6562 68.3784 83.422 68.2528 83.1827 68.1373V68.1373ZM86.3834 58.3976C85.8168 58.4006 85.2742 58.6271 84.8736 59.0277C84.4729 59.4284 84.2464 59.9709 84.2434 60.5376C84.2584 61.0951 84.4905 61.6248 84.8902 62.0139C85.2899 62.4029 85.8256 62.6206 86.3834 62.6206C86.9412 62.6206 87.4769 62.4029 87.8766 62.0139C88.2763 61.6248 88.5084 61.0951 88.5234 60.5376C88.5201 59.971 88.2936 59.4286 87.893 59.028C87.4924 58.6273 86.9499 58.4008 86.3834 58.3976V58.3976ZM84.2784 62.9507C83.8846 62.9507 83.508 63.0534 83.1827 63.2589C82.5493 63.6184 82.1384 64.3032 82.1384 65.0907C82.1384 65.8611 82.5485 66.546 83.1827 66.9226C83.508 67.1109 83.8846 67.2308 84.2784 67.2308C84.8449 67.2277 85.3872 67.0012 85.7877 66.6005C86.1881 66.1998 86.4142 65.6572 86.4168 65.0907C86.4168 64.5234 86.1916 63.9794 85.7906 63.5781C85.3896 63.1768 84.8457 62.9511 84.2784 62.9507ZM66.3731 60.5205C66.9396 60.5174 67.4821 60.2909 67.8826 59.8902C68.2832 59.4895 68.5095 58.947 68.5123 58.3804C68.5016 57.82 68.2715 57.2862 67.8714 56.8937C67.4713 56.5011 66.9332 56.2812 66.3727 56.2812C65.8122 56.2812 65.2741 56.5011 64.874 56.8937C64.4739 57.2862 64.2438 57.82 64.2331 58.3804C64.2361 58.9471 64.4626 59.4896 64.8633 59.8903C65.2639 60.2909 65.8065 60.5174 66.3731 60.5205ZM79.9128 60.4177C81.0769 60.4177 82.0349 59.4598 82.0349 58.2777C82.0349 57.0964 81.0777 56.1377 79.9128 56.1377C79.3552 56.1527 78.8255 56.3848 78.4364 56.7845C78.0474 57.1842 77.8297 57.7199 77.8297 58.2777C77.8297 58.8355 78.0474 59.3712 78.4364 59.7709C78.8255 60.1706 79.3552 60.4027 79.9128 60.4177V60.4177ZM78.8692 65.2448C79.4268 65.2298 79.9565 64.9977 80.3455 64.598C80.7346 64.1983 80.9523 63.6626 80.9523 63.1048C80.9523 62.547 80.7346 62.0113 80.3455 61.6116C79.9565 61.2119 79.4268 60.9798 78.8692 60.9648C78.3116 60.9798 77.782 61.2119 77.3929 61.6116C77.0038 62.0113 76.7861 62.547 76.7861 63.1048C76.7861 63.6626 77.0038 64.1983 77.3929 64.598C77.782 64.9977 78.3116 65.2298 78.8692 65.2448V65.2448ZM65.3638 63.3616C65.3638 63.9292 65.5892 64.4735 65.9906 64.8748C66.3919 65.2762 66.9362 65.5016 67.5038 65.5016C68.0714 65.5016 68.6157 65.2762 69.017 64.8748C69.4183 64.4735 69.6438 63.9292 69.6438 63.3616C69.6438 62.794 69.4183 62.2497 69.017 61.8484C68.6157 61.4471 68.0714 61.2216 67.5038 61.2216C66.9362 61.2216 66.3919 61.4471 65.9906 61.8484C65.5892 62.2497 65.3638 62.794 65.3638 63.3616ZM73.1511 64.5943C74.3153 64.5943 75.274 63.6355 75.274 62.4542C75.274 61.273 74.316 60.3142 73.1511 60.3142C72.5935 60.3293 72.0638 60.5613 71.6748 60.961C71.2857 61.3607 71.068 61.8965 71.068 62.4542C71.068 63.012 71.2857 63.5478 71.6748 63.9475C72.0638 64.3472 72.5935 64.5792 73.1511 64.5943V64.5943ZM50.9852 76.2165C51.2249 75.292 51.1051 74.6757 50.6086 74.3846C50.1121 73.9566 49.5822 73.8197 49.0172 73.9737C48.8973 74.0251 48.7604 74.0765 48.6234 74.1449C47.2025 75.6679 45.7651 77.1737 44.3271 78.6981C42.8034 77.1737 41.331 75.7356 39.791 74.2134C39.2432 73.8368 38.5926 73.9224 38.1304 74.2134C37.9934 74.299 37.8736 74.3846 37.7887 74.4874C37.258 75.2056 37.1895 75.9931 37.5833 76.6274C37.7716 76.8157 37.9428 77.004 38.1311 77.1931C39.6891 78.888 41.2633 80.5821 42.8384 82.2754V88.6605C43.2493 89.4994 43.7963 89.9095 44.464 89.8418C45.32 89.8418 45.7823 89.4317 46.0733 88.7811V82.1393C47.0492 80.958 48.0421 79.7603 49.0172 78.5798C49.6841 77.7915 50.3347 76.9877 50.9852 76.2165ZM69.6936 86.1781H65.5513V75.001C65.5 73.2384 62.0596 73.2555 62.0596 75.001V88.5585C62.111 89.1227 62.3164 89.4309 62.693 89.483H69.6936C71.4912 89.4472 71.5255 86.1096 69.6936 86.1781V86.1781ZM95.6773 76.0966C95.2186 75.4961 94.7509 74.9025 94.2742 74.3162C93.8454 73.6998 93.2633 73.4601 92.4758 73.6656C91.7233 73.6827 91.2782 74.1278 91.1747 74.9667V88.4543C91.3467 89.3616 91.8937 89.8067 92.8011 89.8067C93.7256 89.8067 94.3077 89.3966 94.5808 88.5912V86.5376H98.9457C99.7161 87.5298 100.469 88.5391 101.239 89.5336C101.941 89.9087 102.66 89.8752 103.379 89.4301C103.995 88.985 104.202 88.3523 103.995 87.5305C101.257 83.6964 98.5698 79.8281 95.6773 76.0966ZM95.6773 83.1494C95.352 83.133 95.0104 83.133 94.6851 83.133C94.6851 82.2941 94.7185 81.4202 94.7185 80.5642C95.0617 80.9245 95.387 81.2833 95.6773 81.6599C96.0376 82.1221 96.3629 82.6186 96.6695 83.1665C96.3278 83.1494 96.0026 83.1494 95.6773 83.1494ZM87.8542 84.5018C86.8114 85.5275 85.7842 86.1267 84.8083 86.2637C83.4909 86.4356 82.4629 86.2139 81.7773 85.5796C80.8528 84.8956 80.2544 84.0567 79.9805 83.0459C79.7587 82.1385 79.775 81.1977 80.0318 80.2055C80.3392 79.2981 80.9213 78.5962 81.7765 78.0818C82.5306 77.5861 83.3858 77.3978 84.3103 77.3814C85.4916 77.4312 86.4666 78.0133 87.3227 78.681C88.1966 79.2981 88.8969 79.2981 89.6845 78.716C90.2331 77.9806 90.3864 77.2266 89.7708 76.3021C89.5654 75.9605 88.5032 73.8204 84.0877 73.7348C79.6707 73.6321 76.0763 77.313 76.0763 81.7284C76.0763 86.1454 79.6707 89.7398 84.0877 89.7398C88.5032 89.7398 89.5989 87.6333 90.079 86.8294C90.4027 86.0255 90.3342 85.3578 89.8557 84.8614C89.3273 84.347 88.7102 84.1579 87.8542 84.5018V84.5018ZM115.02 73.6664C114.181 73.7006 113.667 74.1286 113.411 74.8126V82.6358C111.717 79.8288 110.022 77.0048 108.328 74.2142C107.78 73.6492 106.992 73.5123 106 73.8204C105.281 74.0772 104.802 74.5901 104.597 75.3613V88.4722C104.63 89.311 105.212 89.7048 106.36 89.6713C107.233 89.6029 107.78 89.1912 108.003 88.4722C107.985 85.7329 107.985 82.996 107.968 80.2739C109.629 83.1143 111.289 85.9571 112.948 88.7974C113.309 89.3795 113.874 89.7398 114.883 89.585C115.842 89.5515 116.424 89.0379 116.782 88.1819V74.8477C116.457 74.0422 115.875 73.6492 115.02 73.6664V73.6664ZM136.057 73.5294C135.218 73.5636 134.704 73.9916 134.447 74.6764V82.4988C132.754 79.6919 131.059 76.8678 129.365 74.0772C128.799 73.5123 128.029 73.3753 127.037 73.6843C126.301 73.9411 125.839 74.4539 125.634 75.2251V88.3188C125.667 89.1749 126.249 89.5678 127.378 89.5344C128.269 89.4659 128.816 89.0542 129.04 88.3188C129.022 85.5967 129.022 82.8575 129.005 80.137C130.666 82.9774 132.326 85.8201 133.969 88.6605C134.345 89.2426 134.911 89.6029 135.92 89.448C136.861 89.4145 137.461 88.9009 137.82 88.0449V74.7107C137.495 73.906 136.895 73.5123 136.057 73.5294V73.5294ZM121.011 73.6321C120.069 73.6321 119.402 74.0772 119.213 75.1729V88.2838C119.505 89.3461 120.155 89.6534 120.943 89.6363C121.799 89.62 122.517 89.2947 122.944 88.2667V75.1045C122.671 74.0765 122.038 73.5808 121.011 73.6321V73.6321ZM23.0849 87.5827L20.569 83.8847C20.9799 83.4062 21.4079 82.9439 21.8351 82.4817C22.4686 81.4023 22.811 80.2568 22.7082 79.0055C22.4857 77.4826 21.9892 76.3184 21.1161 75.6173C20.1753 74.6586 19.0103 74.0936 17.5388 74.1449C17.4703 74.1449 17.4189 74.1621 17.3676 74.1621C16.1691 74.3333 15.0914 74.6928 14.047 75.4803C13.2253 76.1994 12.6432 77.0546 12.1817 78.2872L12.3872 88.1803C12.5926 89.5149 13.226 90.1655 14.2525 90.1484C15.0742 90.1149 15.605 89.6511 15.8618 88.7788C15.8789 87.3928 15.9131 85.9882 15.9302 84.5851C15.8446 84.3968 15.9131 84.2248 16.1014 84.1229C16.5637 84.2248 16.6493 84.568 16.8205 84.8582C16.9917 85.0987 17.18 85.3205 17.3683 85.5423C18.4829 86.9593 19.6069 88.3689 20.7402 89.7709C21.5106 90.1312 22.1954 90.0791 22.7775 89.6005C22.8973 89.4457 23.0172 89.2924 23.0857 89.1204C23.3254 88.6418 23.3767 88.1632 23.1199 87.6309C23.1184 87.6161 23.102 87.599 23.0849 87.5827V87.5827ZM17.3668 81.1805C17.1293 81.1823 16.8939 81.1371 16.674 81.0475C16.4541 80.958 16.2541 80.8258 16.0855 80.6587C15.9168 80.4916 15.7829 80.2927 15.6913 80.0737C15.5998 79.8546 15.5524 79.6196 15.552 79.3822C15.5525 78.901 15.7438 78.4396 16.084 78.0994C16.4243 77.7592 16.8856 77.5678 17.3668 77.5674C18.3597 77.5674 19.1644 78.39 19.1644 79.3822C19.1645 79.6183 19.1181 79.8521 19.0278 80.0703C18.9375 80.2885 18.8051 80.4868 18.6382 80.6538C18.4712 80.8208 18.273 80.9532 18.0549 81.0436C17.8367 81.134 17.6029 81.1805 17.3668 81.1805V81.1805ZM30.9064 74.0088C27.1066 74.0088 23.9059 76.6624 23.0841 80.2055C22.9643 80.7876 22.8787 81.3868 22.8787 82.0023C22.8787 82.6194 22.9643 83.2178 23.0841 83.8007C23.9059 87.3601 27.1066 90.0137 30.9064 90.0137C34.0729 90.0137 36.8292 88.1476 38.1296 85.4598C38.6261 84.4155 38.9171 83.235 38.9171 82.0023C38.9171 80.7697 38.6261 79.5884 38.1296 78.5464C36.8292 75.8749 34.0737 74.0088 30.9064 74.0088V74.0088ZM30.9064 86.3329C28.5104 86.3329 26.5766 84.3812 26.5766 82.0015C26.5779 80.8536 27.0344 79.753 27.8462 78.9412C28.6579 78.1295 29.7585 77.6729 30.9064 77.6717C33.2861 77.6717 35.2371 79.6234 35.2371 82.0015C35.2378 84.382 33.2861 86.3329 30.9064 86.3329ZM58.5508 73.6664C57.7632 73.4609 57.1811 73.7006 56.7531 74.3169C56.276 74.9031 55.808 75.4967 55.3493 76.0974C53.1587 78.9043 51.0872 81.8155 49.0164 84.7244C48.3666 85.6652 47.6982 86.5905 47.0313 87.5313C46.8258 88.3539 47.0313 88.9858 47.6476 89.4309C48.1098 89.7211 48.5721 89.841 49.0164 89.7912C49.2732 89.7562 49.53 89.6713 49.7868 89.5344C50.5572 88.5406 51.3105 87.5313 52.0801 86.5384H56.445V88.592C56.7189 89.3974 57.301 89.8075 58.2084 89.8075C59.1157 89.8075 59.6636 89.3624 59.8511 88.455V74.9675C59.732 74.1286 59.304 73.6835 58.5508 73.6664ZM55.3493 83.1494C55.0248 83.1494 54.6824 83.1494 54.3571 83.1657C54.6653 82.6186 54.9906 82.1214 55.3493 81.6591C55.6403 81.2825 55.9656 80.9237 56.308 80.5634C56.308 81.4194 56.3423 82.2933 56.3423 83.1322C55.9999 83.1322 55.6754 83.1322 55.3493 83.1494V83.1494Z" fill="#CC2229"/>
</svg>
