<svg width="150" height="150" viewBox="0 0 150 150" fill="none" xmlns="http://www.w3.org/2000/svg">
<rect width="150" height="150" fill="white"/>
<path d="M150 0H0V150H150V0Z" fill="url(#paint0_linear)"/>
<path d="M136.45 67.8959C135.05 67.8959 133.901 66.7652 133.901 65.3193C133.901 63.8735 135.05 62.7427 136.45 62.7427C137.843 62.7427 139.008 63.8735 139.008 65.3193C139.008 66.7652 137.843 67.8959 136.45 67.8959ZM136.45 63.1629C135.307 63.1629 134.398 64.1052 134.398 65.3193C134.398 66.5242 135.307 67.4819 136.45 67.4819C137.587 67.4819 138.507 66.5273 138.507 65.3193C138.507 64.1052 137.587 63.1629 136.45 63.1629ZM137.024 66.7528L136.774 66.3017C136.58 65.9495 136.441 65.7549 136.283 65.5943C136.227 65.5387 136.187 65.5108 136.098 65.5047V66.7528H135.625V63.8704H136.505C137.151 63.8704 137.442 64.2442 137.442 64.6952C137.442 65.137 137.157 65.4861 136.728 65.4861C136.833 65.5417 137.018 65.8198 137.173 66.0608L137.596 66.7528H137.024ZM136.36 64.2596H136.098V65.1741H136.348C136.598 65.1741 136.722 65.1401 136.811 65.0505C136.895 64.9671 136.944 64.8497 136.944 64.7045C136.944 64.411 136.784 64.2596 136.36 64.2596Z" fill="black"/>
<path fill-rule="evenodd" clip-rule="evenodd" d="M12.5708 105.111C12.5708 105.111 17.2049 113.245 26.2661 113.245C35.3274 113.245 40.0665 106.965 40.0665 99.55C40.0665 84.4119 22.5588 78.749 22.5588 65.2576C22.5588 54.3427 33.7826 50.0175 39.7576 50.0175C43.2579 50.0175 45.9364 50.8424 46.9652 51.2533C47.9939 51.6642 49.1277 52.489 49.1277 54.0337C49.1277 55.5785 48.4079 56.1963 48.4079 56.1963C48.4079 56.1963 44.9076 54.4446 41.3023 54.4446C34.6075 54.4446 29.7695 57.843 29.7695 62.4771C29.7695 74.2169 47.1721 79.9848 47.1721 95.9447C47.1721 110.258 34.4036 120.144 24.0016 120.144C13.5995 120.144 11.644 112.936 11.644 109.847C11.644 106.758 12.5708 105.111 12.5708 105.111ZM112.977 71.2541C112.977 82.6849 105.716 93.1117 98.7653 93.1117C96.3586 93.1117 94.4185 91.0171 94.1219 87.4086C90.7606 95.8705 85.7156 99.3677 82.2369 99.3677C79.7129 99.3677 77.6337 98.2864 76.4659 95.6203C74.7297 99.0557 71.6155 103.875 67.7692 103.875C65.3997 103.875 63.8549 102.022 63.8549 97.3874C63.8549 92.7533 66.2245 80.1887 66.2245 78.9529C66.2245 77.7171 66.1226 76.9973 65.3997 76.9973C62.7211 76.9973 55.3066 91.5175 55.3066 108.098C55.3066 108.098 49.8476 108.098 49.8476 101.818C49.8476 90.566 53.3479 77.9767 53.3479 63.407C53.3479 59.3908 53.0389 56.8173 53.0389 56.8173C53.0389 56.8173 60.0426 56.0975 60.0426 65.0568C60.0426 74.016 58.294 78.7459 57.6761 84.3069C57.6761 84.3069 62.2083 72.2582 68.6961 72.2582C71.0656 72.2582 72.4033 74.4207 72.4033 78.644C72.4033 82.8672 70.0338 91.2086 70.0338 94.7089C70.0338 98.2092 70.6516 98.4162 71.5785 98.4162C72.2921 98.4162 74.2354 95.5338 75.6534 92.6575C75.5144 91.7369 75.4402 90.7081 75.4402 89.5619C75.4402 76.5092 84.0906 68.3995 89.0336 68.3995C91.0417 68.3995 92.8954 69.867 92.8954 73.2653C92.8954 80.4822 85.0297 86.6394 81.0413 88.008C81.273 91.8574 82.6077 93.9643 84.7085 93.9643C90.8873 93.9643 96.9116 79.7531 96.9116 54.8061C99.5376 54.8061 102.318 55.8102 102.318 60.8304C102.318 65.8507 100.928 71.2572 100.928 71.2572C100.928 71.2572 104.712 63.4564 108.806 63.4564C111.277 63.4534 112.977 65.6932 112.977 71.2541ZM131.05 79.3638C130.123 79.3638 129.814 78.6687 129.814 77.4329C129.814 75.0386 131.745 67.933 131.745 64.5346C131.745 61.6769 130.586 59.2827 127.497 59.2827C120.391 59.2827 114.212 69.4777 114.212 79.5955C114.212 83.9979 115.139 86.7784 117.611 86.7784C123.017 86.7784 125.643 78.128 125.643 78.128C125.411 81.063 126.802 83.1483 129.041 83.1483C133.676 83.1483 134.989 78.437 134.216 75.6565C134.216 75.6565 132.98 79.3638 131.05 79.3638ZM81.0228 86.0585C85.1749 83.3213 88.184 77.8067 88.184 73.497C88.184 72.3385 87.9523 71.7978 87.1027 71.7978C85.6167 71.7948 81.3441 79.8736 81.0228 86.0585ZM107.57 72.3354C107.57 69.0915 106.875 68.2419 106.025 68.2419C103.554 68.2419 98.7653 79.9817 98.7653 85.5426C98.7653 88.7093 99.5376 89.7906 100.619 89.7906C103.399 89.7906 107.57 79.5955 107.57 72.3354ZM127.111 64.6891C127.111 62.4493 126.57 62.1404 125.643 62.1404C122.94 62.1404 118.846 73.2622 118.846 78.437C118.846 80.9085 119.233 81.8353 120.391 81.8353C122.554 81.8353 127.111 71.9492 127.111 64.6891Z" fill="black"/>
<path fill-rule="evenodd" clip-rule="evenodd" d="M92.5092 65.6931C92.5092 65.6931 91.7368 63.5306 88.0295 63.5306C78.8386 63.5306 71.115 70.4045 64.0094 70.4045C64.0094 70.4045 64.0094 65.0753 65.863 59.2826C67.7167 53.49 71.9646 48.7014 76.5215 48.0063C77.819 47.8086 79.6881 47.3884 80.3833 45.8437C81.0784 44.299 82.3141 42.2136 83.8588 41.7502C83.8588 41.7502 81.2328 40.1283 82.1597 35.417C82.1597 35.417 80.9239 33.3316 81.3873 30.6284C81.3873 30.6284 84.0905 31.2463 85.0946 33.4088C85.0946 33.4088 85.7897 32.791 87.5661 32.6365C89.3425 32.482 91.1962 32.9454 91.1962 32.9454C92.123 30.6284 94.5173 29.856 94.5173 29.856C94.5173 29.856 95.4441 31.8641 94.1311 33.8722C94.1311 33.8722 95.6758 35.6487 95.6758 37.3478C95.6758 39.5877 94.5945 40.9779 94.5945 40.9779C94.5945 40.9779 96.3987 47.2278 93.8222 50.864C92.5092 52.7176 91.5051 55.1119 91.5051 57.5835C91.5051 60.055 93.6677 62.4493 92.5092 65.6931Z" fill="black"/>
<path fill-rule="evenodd" clip-rule="evenodd" d="M86.3613 36.5879C86.315 37.0791 86.1821 37.7773 85.8207 38.3705C85.8207 38.3705 85.487 37.7896 85.3974 36.5848C84.0968 36.6991 83.6117 37.2181 83.6117 37.2181C83.6117 37.2181 84.4335 38.5805 85.6106 38.8153C86.7846 39.0501 88.1006 38.6022 88.1006 38.6022C88.1006 38.6022 88.2798 36.8288 86.3613 36.5879Z" fill="white"/>
<path fill-rule="evenodd" clip-rule="evenodd" d="M91.2735 36.5879C91.3198 37.0791 91.4526 37.7773 91.8141 38.3705C91.8141 38.3705 92.1478 37.7896 92.2373 36.5848C93.538 36.6991 94.023 37.2181 94.023 37.2181C94.023 37.2181 93.2012 38.5805 92.0242 38.8153C90.8502 39.0501 89.5341 38.6022 89.5341 38.6022C89.5341 38.6022 89.3549 36.8288 91.2735 36.5879Z" fill="white"/>
<defs>
<linearGradient id="paint0_linear" x1="0.00151381" y1="75.001" x2="150.002" y2="75.001" gradientUnits="userSpaceOnUse">
<stop stop-color="#E6BF65"/>
<stop offset="0.2454" stop-color="#F8F4B3"/>
<stop offset="0.5706" stop-color="#D4AC4F"/>
<stop offset="0.6626" stop-color="#D4AC4F"/>
<stop offset="1" stop-color="#F8F4B3"/>
</linearGradient>
</defs>
</svg>
